<svg width="278" height="286" viewBox="0 0 278 286" fill="none" xmlns="http://www.w3.org/2000/svg">
<rect x="0.0170778" y="-0.0170778" width="1.48007" height="1.51423" rx="0.0967741" transform="matrix(1 0 0 -1 148.818 92.5142)" fill="#011320" stroke="#2F80ED" stroke-width="0.0341556"/>
<rect x="28.5" y="22.5" width="248" height="255.606" rx="124" fill="#011320" stroke="url(#paint0_radial_241_2710)" stroke-width="3"/>
<path d="M77.8894 162.634V136.554H87.7905C90.3311 136.554 92.274 137.277 93.6191 138.721C94.9641 140.166 95.6366 142.134 95.6366 144.625C95.6366 147.116 94.9641 149.083 93.6191 150.528C92.274 151.973 90.3311 152.695 87.7905 152.695H82.7839V162.634H77.8894ZM82.7839 148.697H86.7817C88.1018 148.697 89.0484 148.436 89.6213 147.913C90.1941 147.365 90.4806 146.505 90.4806 145.335V143.915C90.4806 142.744 90.1941 141.897 89.6213 141.374C89.0484 140.826 88.1018 140.552 86.7817 140.552H82.7839V148.697ZM100.106 158.86H104.888V147.128H100.106V143.354H109.67V148.623H109.969C110.144 147.95 110.38 147.302 110.679 146.68C111.003 146.032 111.402 145.472 111.875 144.998C112.373 144.5 112.971 144.102 113.668 143.803C114.366 143.504 115.2 143.354 116.171 143.354H118.264V147.838H114.303C112.859 147.838 111.725 148.261 110.903 149.108C110.081 149.955 109.67 151.039 109.67 152.359V158.86H116.358V162.634H100.106V158.86ZM130.915 163.082C129.445 163.082 128.125 162.845 126.955 162.372C125.809 161.899 124.825 161.226 124.003 160.354C123.206 159.483 122.583 158.424 122.135 157.179C121.711 155.933 121.5 154.538 121.5 152.994C121.5 151.45 121.711 150.055 122.135 148.809C122.583 147.564 123.206 146.505 124.003 145.634C124.825 144.762 125.809 144.089 126.955 143.616C128.125 143.143 129.445 142.906 130.915 142.906C132.36 142.906 133.667 143.143 134.838 143.616C136.009 144.089 136.993 144.762 137.79 145.634C138.612 146.505 139.234 147.564 139.658 148.809C140.106 150.055 140.33 151.45 140.33 152.994C140.33 154.538 140.106 155.933 139.658 157.179C139.234 158.424 138.612 159.483 137.79 160.354C136.993 161.226 136.009 161.899 134.838 162.372C133.667 162.845 132.36 163.082 130.915 163.082ZM130.915 159.42C132.285 159.42 133.369 159.009 134.166 158.187C134.963 157.341 135.361 156.108 135.361 154.488V151.499C135.361 149.88 134.963 148.66 134.166 147.838C133.369 146.991 132.285 146.568 130.915 146.568C129.545 146.568 128.462 146.991 127.665 147.838C126.867 148.66 126.469 149.88 126.469 151.499V154.488C126.469 156.108 126.867 157.341 127.665 158.187C128.462 159.009 129.545 159.42 130.915 159.42ZM157.166 159.234H156.905C156.382 160.404 155.659 161.338 154.738 162.036C153.841 162.733 152.646 163.082 151.151 163.082C150.055 163.082 149.046 162.883 148.125 162.484C147.228 162.061 146.456 161.438 145.808 160.616C145.161 159.769 144.662 158.71 144.314 157.44C143.965 156.17 143.791 154.688 143.791 152.994C143.791 149.606 144.463 147.078 145.808 145.409C147.153 143.741 148.934 142.906 151.151 142.906C152.646 142.906 153.841 143.255 154.738 143.952C155.659 144.65 156.382 145.584 156.905 146.754H157.166V134.985H161.949V162.634H157.166V159.234ZM153.169 159.271C153.717 159.271 154.227 159.209 154.7 159.084C155.199 158.935 155.622 158.735 155.971 158.486C156.344 158.212 156.631 157.876 156.83 157.478C157.054 157.054 157.166 156.568 157.166 156.02V149.968C157.166 149.42 157.054 148.946 156.83 148.548C156.631 148.124 156.344 147.788 155.971 147.539C155.622 147.265 155.199 147.066 154.7 146.941C154.227 146.792 153.717 146.717 153.169 146.717C151.774 146.717 150.69 147.141 149.918 147.987C149.171 148.834 148.797 149.993 148.797 151.462V154.526C148.797 155.995 149.171 157.154 149.918 158.001C150.69 158.847 151.774 159.271 153.169 159.271ZM179.345 159.234H179.158C178.735 160.28 178.075 161.189 177.178 161.961C176.306 162.708 175.086 163.082 173.517 163.082C171.624 163.082 170.079 162.459 168.884 161.214C167.713 159.943 167.128 158.138 167.128 155.796V143.354H171.91V155.124C171.91 157.913 173.118 159.308 175.534 159.308C176.007 159.308 176.468 159.246 176.917 159.121C177.39 158.997 177.801 158.81 178.15 158.561C178.523 158.287 178.81 157.963 179.009 157.59C179.233 157.216 179.345 156.768 179.345 156.245V143.354H184.128V162.634H179.345V159.234ZM198.871 163.082C197.402 163.082 196.081 162.845 194.911 162.372C193.74 161.899 192.744 161.226 191.922 160.354C191.125 159.483 190.502 158.424 190.054 157.179C189.63 155.933 189.418 154.538 189.418 152.994C189.418 151.45 189.63 150.055 190.054 148.809C190.502 147.564 191.125 146.505 191.922 145.634C192.744 144.762 193.728 144.089 194.873 143.616C196.044 143.143 197.364 142.906 198.834 142.906C200.876 142.906 202.52 143.33 203.766 144.176C205.011 145.023 205.958 146.144 206.605 147.539L202.906 149.557C202.558 148.735 202.06 148.075 201.412 147.576C200.789 147.053 199.93 146.792 198.834 146.792C197.414 146.792 196.318 147.203 195.546 148.025C194.799 148.847 194.425 149.968 194.425 151.387V154.601C194.425 155.995 194.799 157.116 195.546 157.963C196.318 158.785 197.439 159.196 198.909 159.196C200.054 159.196 200.964 158.935 201.636 158.412C202.333 157.888 202.894 157.191 203.317 156.319L206.904 158.449C206.257 159.819 205.273 160.94 203.953 161.812C202.657 162.658 200.964 163.082 198.871 163.082ZM221.835 162.634C219.991 162.634 218.634 162.148 217.762 161.176C216.89 160.205 216.454 158.947 216.454 157.403V147.128H210.85V143.354H214.661C215.433 143.354 215.981 143.205 216.305 142.906C216.629 142.582 216.791 142.022 216.791 141.225V136.554H221.237V143.354H229.083V147.128H221.237V158.86H229.083V162.634H221.835Z" fill="white"/>
<rect x="133.984" width="32.7097" height="32.7097" rx="16.3548" fill="#2F80ED"/>
<path d="M147.51 17.2983C146.887 17.6097 146.368 18.072 145.981 18.6476C145.764 18.9779 145.764 19.393 145.981 19.7233C146.368 20.2988 146.887 20.7612 147.51 21.0725" stroke="#F5F5F5" stroke-width="1.57258" stroke-linecap="round" stroke-linejoin="round"/>
<path d="M153.369 17.2983C153.992 17.6097 154.511 18.072 154.898 18.6476C155.115 18.9779 155.115 19.393 154.898 19.7233C154.511 20.2988 153.992 20.7612 153.369 21.0725" stroke="#F5F5F5" stroke-width="1.57258" stroke-linecap="round" stroke-linejoin="round"/>
<path d="M147.511 25.7904H153.172C157.89 25.7904 159.777 23.9033 159.777 19.1856V13.5243C159.777 8.80653 157.89 6.91943 153.172 6.91943H147.511C142.793 6.91943 140.906 8.80653 140.906 13.5243V19.1856C140.906 23.9033 142.793 25.7904 147.511 25.7904Z" stroke="#F5F5F5" stroke-width="1.57258" stroke-linecap="round" stroke-linejoin="round"/>
<path d="M141.123 12.59L159.258 12.5806" stroke="#F5F5F5" stroke-width="1.57258" stroke-linecap="round" stroke-linejoin="round"/>
<path d="M117.573 41.7169H119.757C120.669 41.7169 121.347 42.0188 121.79 42.6227C122.239 43.2266 122.464 44.0955 122.464 45.2294C122.464 46.3701 122.239 47.2423 121.79 47.8462C121.347 48.4434 120.669 48.7419 119.757 48.7419H117.573V41.7169ZM119.666 47.6852C120.149 47.6852 120.505 47.5275 120.733 47.2121C120.968 46.8968 121.085 46.4372 121.085 45.8333V44.6155C121.085 44.0183 120.968 43.5621 120.733 43.2467C120.505 42.9314 120.149 42.7737 119.666 42.7737H118.871V47.6852H119.666ZM126.013 48.8627C125.597 48.8627 125.228 48.799 124.906 48.6715C124.584 48.544 124.312 48.3628 124.09 48.128C123.876 47.8932 123.711 47.6114 123.597 47.2826C123.483 46.9471 123.426 46.5714 123.426 46.1554C123.426 45.7327 123.483 45.3536 123.597 45.0181C123.718 44.6826 123.886 44.3974 124.101 44.1626C124.315 43.9277 124.574 43.7466 124.876 43.6191C125.184 43.4916 125.53 43.4279 125.912 43.4279C126.288 43.4279 126.627 43.4916 126.929 43.6191C127.231 43.7399 127.486 43.9143 127.694 44.1425C127.908 44.3706 128.073 44.6457 128.187 44.9677C128.301 45.2898 128.358 45.6454 128.358 46.0346V46.4573H124.714V46.5881C124.714 46.9639 124.832 47.2692 125.067 47.504C125.302 47.7321 125.63 47.8462 126.053 47.8462C126.375 47.8462 126.65 47.7825 126.878 47.655C127.113 47.5208 127.308 47.3463 127.462 47.1316L128.197 47.8663C128.009 48.1414 127.734 48.3763 127.372 48.5708C127.016 48.7654 126.563 48.8627 126.013 48.8627ZM125.922 44.3739C125.56 44.3739 125.268 44.488 125.047 44.7161C124.825 44.9443 124.714 45.2462 124.714 45.6219V45.6924H127.07V45.6018C127.07 45.2261 126.966 44.9275 126.758 44.7061C126.556 44.4847 126.278 44.3739 125.922 44.3739ZM131.152 48.7419L129.29 43.5487H130.639L131.333 45.7528L131.917 47.665H131.987L132.571 45.7528L133.265 43.5487H134.564L132.702 48.7419H131.152ZM138.082 48.8627C137.666 48.8627 137.297 48.799 136.975 48.6715C136.653 48.544 136.381 48.3628 136.16 48.128C135.945 47.8932 135.781 47.6114 135.667 47.2826C135.553 46.9471 135.496 46.5714 135.496 46.1554C135.496 45.7327 135.553 45.3536 135.667 45.0181C135.788 44.6826 135.955 44.3974 136.17 44.1626C136.385 43.9277 136.643 43.7466 136.945 43.6191C137.254 43.4916 137.599 43.4279 137.982 43.4279C138.357 43.4279 138.696 43.4916 138.998 43.6191C139.3 43.7399 139.555 43.9143 139.763 44.1425C139.978 44.3706 140.142 44.6457 140.256 44.9677C140.37 45.2898 140.427 45.6454 140.427 46.0346V46.4573H136.784V46.5881C136.784 46.9639 136.901 47.2692 137.136 47.504C137.371 47.7321 137.7 47.8462 138.123 47.8462C138.445 47.8462 138.72 47.7825 138.948 47.655C139.183 47.5208 139.377 47.3463 139.532 47.1316L140.266 47.8663C140.078 48.1414 139.803 48.3763 139.441 48.5708C139.085 48.7654 138.633 48.8627 138.082 48.8627ZM137.992 44.3739C137.629 44.3739 137.338 44.488 137.116 44.7161C136.895 44.9443 136.784 45.2462 136.784 45.6219V45.6924H139.139V45.6018C139.139 45.2261 139.035 44.9275 138.827 44.7061C138.626 44.4847 138.347 44.3739 137.992 44.3739ZM141.702 47.7254H143.352V42.3107H141.702V41.2942H144.64V47.7254H146.301V48.7419H141.702V47.7254ZM150.031 48.8627C149.635 48.8627 149.28 48.799 148.964 48.6715C148.656 48.544 148.391 48.3628 148.169 48.128C147.954 47.8932 147.787 47.608 147.666 47.2725C147.552 46.937 147.495 46.5613 147.495 46.1453C147.495 45.7293 147.552 45.3536 147.666 45.0181C147.787 44.6826 147.954 44.3974 148.169 44.1626C148.391 43.9277 148.656 43.7466 148.964 43.6191C149.28 43.4916 149.635 43.4279 150.031 43.4279C150.42 43.4279 150.773 43.4916 151.088 43.6191C151.403 43.7466 151.668 43.9277 151.883 44.1626C152.104 44.3974 152.272 44.6826 152.386 45.0181C152.507 45.3536 152.567 45.7293 152.567 46.1453C152.567 46.5613 152.507 46.937 152.386 47.2725C152.272 47.608 152.104 47.8932 151.883 48.128C151.668 48.3628 151.403 48.544 151.088 48.6715C150.773 48.799 150.42 48.8627 150.031 48.8627ZM150.031 47.8764C150.4 47.8764 150.692 47.7657 150.907 47.5443C151.121 47.3161 151.229 46.984 151.229 46.5479V45.7427C151.229 45.3066 151.121 44.9778 150.907 44.7564C150.692 44.5283 150.4 44.4142 150.031 44.4142C149.662 44.4142 149.37 44.5283 149.156 44.7564C148.941 44.9778 148.833 45.3066 148.833 45.7427V46.5479C148.833 46.984 148.941 47.3161 149.156 47.5443C149.37 47.7657 149.662 47.8764 150.031 47.8764ZM153.741 43.5487H155.029V44.4645H155.1C155.241 44.1492 155.432 43.8976 155.673 43.7097C155.922 43.5218 156.247 43.4279 156.65 43.4279C156.945 43.4279 157.213 43.4849 157.455 43.599C157.703 43.7063 157.914 43.8741 158.089 44.1022C158.263 44.3236 158.398 44.6054 158.491 44.9476C158.585 45.2898 158.632 45.689 158.632 46.1453C158.632 46.6016 158.585 47.0008 158.491 47.343C158.398 47.6852 158.263 47.9703 158.089 48.1985C157.914 48.4199 157.703 48.5876 157.455 48.7017C157.213 48.809 156.945 48.8627 156.65 48.8627C156.247 48.8627 155.922 48.7688 155.673 48.5809C155.432 48.393 155.241 48.1414 155.1 47.8261H155.029V50.7548H153.741V43.5487ZM156.106 47.8361C156.482 47.8361 156.77 47.7221 156.972 47.4939C157.18 47.2658 157.284 46.9538 157.284 46.5579V45.7327C157.284 45.3368 157.18 45.0248 156.972 44.7967C156.77 44.5685 156.482 44.4545 156.106 44.4545C155.811 44.4545 155.556 44.5283 155.341 44.6759C155.133 44.8168 155.029 45.0348 155.029 45.3301V46.9605C155.029 47.2557 155.133 47.4772 155.341 47.6248C155.556 47.7657 155.811 47.8361 156.106 47.8361ZM159.454 48.7419V43.5487H160.521V44.2632H160.581C160.661 44.0351 160.776 43.8405 160.923 43.6795C161.077 43.5117 161.292 43.4279 161.567 43.4279C161.829 43.4279 162.037 43.505 162.191 43.6594C162.346 43.807 162.446 44.0183 162.493 44.2934H162.544C162.631 44.0586 162.758 43.8573 162.926 43.6896C163.1 43.5151 163.345 43.4279 163.661 43.4279C164.043 43.4279 164.318 43.5654 164.486 43.8405C164.654 44.1156 164.738 44.5216 164.738 45.0583V48.7419H163.681V45.2093C163.681 44.9074 163.637 44.696 163.55 44.5752C163.469 44.4545 163.345 44.3941 163.178 44.3941C163.023 44.3941 162.892 44.4444 162.785 44.545C162.684 44.6457 162.634 44.8 162.634 45.008V48.7419H161.567V45.2093C161.567 44.9074 161.527 44.696 161.446 44.5752C161.366 44.4545 161.242 44.3941 161.074 44.3941C160.913 44.3941 160.779 44.4444 160.672 44.545C160.571 44.6457 160.521 44.8 160.521 45.008V48.7419H159.454ZM168.256 48.8627C167.84 48.8627 167.471 48.799 167.149 48.6715C166.827 48.544 166.555 48.3628 166.334 48.128C166.119 47.8932 165.955 47.6114 165.841 47.2826C165.727 46.9471 165.67 46.5714 165.67 46.1554C165.67 45.7327 165.727 45.3536 165.841 45.0181C165.962 44.6826 166.129 44.3974 166.344 44.1626C166.559 43.9277 166.817 43.7466 167.119 43.6191C167.428 43.4916 167.773 43.4279 168.156 43.4279C168.531 43.4279 168.87 43.4916 169.172 43.6191C169.474 43.7399 169.729 43.9143 169.937 44.1425C170.152 44.3706 170.316 44.6457 170.43 44.9677C170.544 45.2898 170.601 45.6454 170.601 46.0346V46.4573H166.958V46.5881C166.958 46.9639 167.075 47.2692 167.31 47.504C167.545 47.7321 167.874 47.8462 168.297 47.8462C168.619 47.8462 168.894 47.7825 169.122 47.655C169.357 47.5208 169.551 47.3463 169.706 47.1316L170.44 47.8663C170.252 48.1414 169.977 48.3763 169.615 48.5708C169.259 48.7654 168.806 48.8627 168.256 48.8627ZM168.166 44.3739C167.803 44.3739 167.511 44.488 167.29 44.7161C167.069 44.9443 166.958 45.2462 166.958 45.6219V45.6924H169.313V45.6018C169.313 45.2261 169.209 44.9275 169.001 44.7061C168.8 44.4847 168.521 44.3739 168.166 44.3739ZM171.906 48.7419V43.5487H173.194V44.4645H173.244C173.358 44.1827 173.533 43.9412 173.768 43.7399C174.009 43.5319 174.341 43.4279 174.764 43.4279C175.274 43.4279 175.687 43.599 176.002 43.9412C176.324 44.2767 176.485 44.7597 176.485 45.3905V48.7419H175.197V45.5716C175.197 44.8201 174.871 44.4444 174.221 44.4444C174.086 44.4444 173.959 44.4612 173.838 44.4947C173.717 44.5283 173.607 44.5819 173.506 44.6557C173.412 44.7228 173.335 44.8067 173.275 44.9074C173.221 45.008 173.194 45.1288 173.194 45.2697V48.7419H171.906ZM180.557 48.7419C180.061 48.7419 179.695 48.6111 179.46 48.3494C179.225 48.0877 179.108 47.7489 179.108 47.3329V44.5652H177.598V43.5487H178.625C178.833 43.5487 178.981 43.5084 179.068 43.4279C179.155 43.3407 179.199 43.1897 179.199 42.975V41.7169H180.396V43.5487H182.51V44.5652H180.396V47.7254H182.51V48.7419H180.557Z" fill="white"/>
<rect x="82.712" y="257.902" width="3.01218" height="3.035" rx="0.193966" fill="#011320" stroke="#CE1F6F" stroke-width="0.0684587"/>
<rect x="67.8633" y="233" width="32.7097" height="32.7097" rx="16.3548" fill="#CE1F6F"/>
<path d="M90.8245 253.129V244.165C90.8245 243.127 89.9753 242.278 88.9374 242.278H84.6914" stroke="#F5F5F5" stroke-width="1.57258" stroke-linecap="round" stroke-linejoin="round"/>
<path d="M87.0513 239.919L84.2207 242.278L87.0513 244.637" stroke="#F5F5F5" stroke-width="1.57258" stroke-linecap="round" stroke-linejoin="round"/>
<path d="M77.6133 246.524V253.129" stroke="#F5F5F5" stroke-width="1.57258" stroke-linecap="round" stroke-linejoin="round"/>
<path d="M77.8517 246.052C79.5453 246.052 80.9182 244.68 80.9182 242.986C80.9182 241.292 79.5453 239.919 77.8517 239.919C76.1581 239.919 74.7852 241.292 74.7852 242.986C74.7852 244.68 76.1581 246.052 77.8517 246.052Z" stroke="#F5F5F5" stroke-width="1.57258" stroke-linecap="round" stroke-linejoin="round"/>
<path d="M77.6158 258.79C79.1791 258.79 80.4464 257.523 80.4464 255.96C80.4464 254.396 79.1791 253.129 77.6158 253.129C76.0525 253.129 74.7852 254.396 74.7852 255.96C74.7852 257.523 76.0525 258.79 77.6158 258.79Z" stroke="#F5F5F5" stroke-width="1.57258" stroke-linecap="round" stroke-linejoin="round"/>
<path d="M90.8248 258.79C92.3881 258.79 93.6554 257.523 93.6554 255.96C93.6554 254.396 92.3881 253.129 90.8248 253.129C89.2615 253.129 87.9941 254.396 87.9941 255.96C87.9941 257.523 89.2615 258.79 90.8248 258.79Z" stroke="#F5F5F5" stroke-width="1.57258" stroke-linecap="round" stroke-linejoin="round"/>
<path d="M60.522 281.742V274.717H63.1891C63.8734 274.717 64.3968 274.911 64.7591 275.301C65.1214 275.69 65.3026 276.22 65.3026 276.891C65.3026 277.562 65.1214 278.092 64.7591 278.481C64.3968 278.87 63.8734 279.065 63.1891 279.065H61.8404V281.742H60.522ZM61.8404 277.988H62.9173C63.2729 277.988 63.5279 277.917 63.6822 277.777C63.8365 277.629 63.9137 277.397 63.9137 277.082V276.7C63.9137 276.384 63.8365 276.156 63.6822 276.015C63.5279 275.868 63.2729 275.794 62.9173 275.794H61.8404V277.988ZM66.4762 280.725H68.1268V275.311H66.4762V274.294H69.4151V280.725H71.0757V281.742H66.4762V280.725ZM76.718 281.742C76.4026 281.742 76.1577 281.665 75.9833 281.51C75.8155 281.349 75.7149 281.128 75.6813 280.846H75.631C75.5371 281.168 75.3525 281.42 75.0775 281.601C74.8024 281.775 74.4635 281.863 74.0609 281.863C73.5376 281.863 73.1216 281.725 72.8129 281.45C72.5043 281.175 72.35 280.793 72.35 280.303C72.35 279.256 73.1182 278.733 74.6547 278.733H75.5706V278.39C75.5706 278.062 75.4901 277.813 75.3291 277.646C75.168 277.478 74.9064 277.394 74.544 277.394C74.2153 277.394 73.9502 277.458 73.7489 277.585C73.5476 277.713 73.3765 277.877 73.2356 278.078L72.5009 277.454C72.662 277.166 72.9203 276.924 73.2759 276.73C73.6382 276.529 74.1045 276.428 74.6749 276.428C75.3593 276.428 75.8927 276.589 76.2751 276.911C76.6643 277.226 76.8589 277.699 76.8589 278.33V280.776H77.4728V281.742H76.718ZM74.4937 280.977C74.8024 280.977 75.0573 280.907 75.2586 280.766C75.4666 280.618 75.5706 280.42 75.5706 280.172V279.477H74.6849C73.9804 279.477 73.6282 279.699 73.6282 280.142V280.343C73.6282 280.551 73.7053 280.709 73.8596 280.816C74.014 280.923 74.2253 280.977 74.4937 280.977ZM78.576 281.742V276.549H79.8642V277.465H79.9146C80.0286 277.183 80.2031 276.941 80.4379 276.74C80.6795 276.532 81.0116 276.428 81.4343 276.428C81.9442 276.428 82.3569 276.599 82.6722 276.941C82.9943 277.277 83.1553 277.76 83.1553 278.39V281.742H81.8671V278.572C81.8671 277.82 81.5416 277.444 80.8908 277.444C80.7566 277.444 80.6291 277.461 80.5084 277.495C80.3876 277.528 80.2769 277.582 80.1762 277.656C80.0823 277.723 80.0051 277.807 79.9447 277.907C79.8911 278.008 79.8642 278.129 79.8642 278.27V281.742H78.576ZM84.6107 281.742V276.549H85.899V277.465H85.9493C86.0634 277.183 86.2378 276.941 86.4727 276.74C86.7142 276.532 87.0464 276.428 87.4691 276.428C87.979 276.428 88.3917 276.599 88.707 276.941C89.0291 277.277 89.1901 277.76 89.1901 278.39V281.742H87.9018V278.572C87.9018 277.82 87.5764 277.444 86.9256 277.444C86.7914 277.444 86.6639 277.461 86.5431 277.495C86.4224 277.528 86.3117 277.582 86.211 277.656C86.1171 277.723 86.0399 277.807 85.9795 277.907C85.9258 278.008 85.899 278.129 85.899 278.27V281.742H84.6107ZM93.2321 275.743C92.9302 275.743 92.7155 275.68 92.588 275.552C92.4672 275.425 92.4068 275.27 92.4068 275.089V274.848C92.4068 274.667 92.4672 274.512 92.588 274.385C92.7155 274.257 92.9302 274.194 93.2321 274.194C93.534 274.194 93.7454 274.257 93.8662 274.385C93.9937 274.512 94.0574 274.667 94.0574 274.848V275.089C94.0574 275.27 93.9937 275.425 93.8662 275.552C93.7454 275.68 93.534 275.743 93.2321 275.743ZM90.877 280.725H92.588V277.565H90.877V276.549H93.8762V280.725H95.4664V281.742H90.877V280.725ZM96.6803 281.742V276.549H97.9686V277.465H98.0189C98.1329 277.183 98.3074 276.941 98.5422 276.74C98.7838 276.532 99.1159 276.428 99.5386 276.428C100.049 276.428 100.461 276.599 100.777 276.941C101.099 277.277 101.26 277.76 101.26 278.39V281.742H99.9714V278.572C99.9714 277.82 99.646 277.444 98.9951 277.444C98.8609 277.444 98.7335 277.461 98.6127 277.495C98.4919 277.528 98.3812 277.582 98.2806 277.656C98.1866 277.723 98.1095 277.807 98.0491 277.907C97.9954 278.008 97.9686 278.129 97.9686 278.27V281.742H96.6803ZM107.757 282.285C107.757 282.829 107.529 283.228 107.073 283.483C106.623 283.745 105.919 283.876 104.959 283.876C104.49 283.876 104.097 283.845 103.782 283.785C103.467 283.731 103.212 283.651 103.017 283.543C102.829 283.436 102.695 283.305 102.614 283.151C102.534 283.003 102.494 282.836 102.494 282.648C102.494 282.359 102.578 282.138 102.745 281.983C102.913 281.829 103.148 281.715 103.45 281.641V281.561C103.249 281.494 103.087 281.4 102.967 281.279C102.853 281.158 102.796 280.99 102.796 280.776C102.796 280.521 102.879 280.33 103.047 280.202C103.222 280.075 103.45 279.977 103.732 279.91V279.86C103.423 279.712 103.181 279.504 103.007 279.236C102.833 278.967 102.745 278.642 102.745 278.26C102.745 277.971 102.796 277.716 102.896 277.495C103.004 277.267 103.151 277.075 103.339 276.921C103.534 276.76 103.765 276.639 104.034 276.559C104.302 276.471 104.601 276.428 104.929 276.428C105.278 276.428 105.594 276.475 105.875 276.569V276.347C105.875 276.146 105.939 275.978 106.067 275.844C106.201 275.71 106.385 275.643 106.62 275.643H107.556V276.609H106.328V276.78C106.583 276.934 106.778 277.136 106.912 277.384C107.053 277.626 107.123 277.917 107.123 278.26C107.123 278.548 107.07 278.806 106.962 279.035C106.862 279.263 106.714 279.454 106.519 279.608C106.332 279.763 106.1 279.883 105.825 279.971C105.557 280.051 105.258 280.091 104.929 280.091C104.795 280.091 104.664 280.088 104.537 280.081C104.416 280.068 104.299 280.044 104.185 280.011C104.091 280.044 104 280.098 103.913 280.172C103.826 280.246 103.782 280.343 103.782 280.464C103.782 280.625 103.859 280.725 104.013 280.766C104.168 280.799 104.352 280.816 104.567 280.816H105.745C106.107 280.816 106.415 280.853 106.67 280.927C106.925 280.994 107.133 281.094 107.294 281.229C107.455 281.356 107.573 281.51 107.647 281.692C107.721 281.873 107.757 282.071 107.757 282.285ZM106.55 282.376C106.55 282.222 106.486 282.098 106.358 282.004C106.238 281.916 106.01 281.873 105.674 281.873H103.883C103.681 281.987 103.581 282.155 103.581 282.376C103.581 282.557 103.654 282.708 103.802 282.829C103.956 282.95 104.215 283.01 104.577 283.01H105.412C106.171 283.01 106.55 282.799 106.55 282.376ZM104.929 279.246C105.258 279.246 105.5 279.169 105.654 279.014C105.808 278.853 105.885 278.645 105.885 278.39V278.129C105.885 277.874 105.808 277.669 105.654 277.515C105.5 277.354 105.258 277.273 104.929 277.273C104.607 277.273 104.369 277.354 104.215 277.515C104.06 277.669 103.983 277.874 103.983 278.129V278.39C103.983 278.645 104.06 278.853 104.215 279.014C104.369 279.169 104.607 279.246 104.929 279.246Z" fill="white"/>
<rect x="0.0736466" y="-0.0736466" width="6.4809" height="6.53" rx="0.417331" transform="matrix(1 0 0 -1 14.6152 143.611)" fill="#011320" stroke="#7209B7" stroke-width="0.147293"/>
<rect x="1.26953" y="114" width="33.944" height="32.7097" rx="16.3548" fill="#7209B7"/>
<g clip-path="url(#clip0_241_2710)">
<path d="M27.4842 123.779C26.1208 127.178 22.7036 131.799 19.844 134.092L18.1 135.491C17.8786 135.65 17.6573 135.792 17.4094 135.89C17.4094 135.73 17.4006 135.553 17.374 135.385C17.2766 134.641 16.9402 133.951 16.3471 133.358C15.7451 132.756 15.0103 132.401 14.2577 132.304C14.0807 132.295 13.9036 132.277 13.7266 132.295C13.8239 132.021 13.9744 131.764 14.1604 131.552L15.5414 129.807C17.8255 126.948 22.4645 123.513 25.8552 122.158C26.3776 121.964 26.8822 122.105 27.2009 122.433C27.5373 122.76 27.6967 123.265 27.4842 123.779Z" stroke="#FEFEFE" stroke-width="1.32796" stroke-linecap="round" stroke-linejoin="round"/>
<path d="M17.408 135.89C17.408 136.863 17.0361 137.793 16.3368 138.501C15.7967 139.041 15.0619 139.413 14.1855 139.528L12.0076 139.767C10.8213 139.9 9.8032 138.891 9.94485 137.687L10.1839 135.509C10.3964 133.57 12.0165 132.331 13.734 132.295C13.911 132.286 14.0969 132.295 14.2651 132.304C15.0176 132.401 15.7524 132.747 16.3545 133.358C16.9476 133.951 17.284 134.641 17.3814 135.385C17.3903 135.553 17.408 135.721 17.408 135.89Z" stroke="#FEFEFE" stroke-width="1.32796" stroke-linecap="round" stroke-linejoin="round"/>
<path d="M20.7832 133.101C20.7832 130.79 18.9063 128.913 16.5957 128.913" stroke="#FEFEFE" stroke-width="1.32796" stroke-linecap="round" stroke-linejoin="round"/>
<path d="M25.9888 131.56L26.644 132.207C27.9631 133.526 27.9631 134.827 26.644 136.146L24.0235 138.767C22.7221 140.068 21.403 140.068 20.1016 138.767" stroke="#FEFEFE" stroke-width="1.32796" stroke-linecap="round"/>
<path d="M10.9292 129.595C9.62778 128.276 9.62778 126.974 10.9292 125.655L13.5497 123.035C14.8511 121.733 16.1702 121.733 17.4716 123.035L18.1267 123.69" stroke="#FEFEFE" stroke-width="1.32796" stroke-linecap="round"/>
<path d="M18.137 123.699L14.8613 126.974" stroke="#FEFEFE" stroke-width="1.32796" stroke-linecap="round"/>
<path d="M25.9877 131.56L23.3672 134.172" stroke="#FEFEFE" stroke-width="1.32796" stroke-linecap="round"/>
</g>
<path d="M0.476897 155.717H2.6609C3.57341 155.717 4.25109 156.019 4.69393 156.623C5.14348 157.227 5.36825 158.095 5.36825 159.229C5.36825 160.37 5.14348 161.242 4.69393 161.846C4.25109 162.443 3.57341 162.742 2.6609 162.742H0.476897V155.717ZM2.57032 161.685C3.05341 161.685 3.40903 161.527 3.63716 161.212C3.87199 160.897 3.98941 160.437 3.98941 159.833V158.615C3.98941 158.018 3.87199 157.562 3.63716 157.247C3.40903 156.931 3.05341 156.774 2.57032 156.774H1.77522V161.685H2.57032ZM8.91709 162.863C8.50109 162.863 8.13206 162.799 7.81 162.671C7.48793 162.544 7.21619 162.363 6.99477 162.128C6.78006 161.893 6.61568 161.611 6.50161 161.283C6.38755 160.947 6.33051 160.571 6.33051 160.155C6.33051 159.733 6.38755 159.354 6.50161 159.018C6.62239 158.683 6.79013 158.397 7.00484 158.163C7.21955 157.928 7.47787 157.747 7.7798 157.619C8.08845 157.492 8.434 157.428 8.81645 157.428C9.19219 157.428 9.53103 157.492 9.83297 157.619C10.1349 157.74 10.3899 157.914 10.5979 158.142C10.8126 158.371 10.977 158.646 11.091 158.968C11.2051 159.29 11.2621 159.645 11.2621 160.035V160.457H7.61877V160.588C7.61877 160.964 7.73619 161.269 7.97103 161.504C8.20587 161.732 8.53464 161.846 8.95735 161.846C9.27942 161.846 9.55451 161.782 9.78264 161.655C10.0175 161.521 10.2121 161.346 10.3664 161.132L11.1011 161.866C10.9132 162.141 10.6381 162.376 10.2758 162.571C9.92019 162.765 9.46729 162.863 8.91709 162.863ZM8.82651 158.374C8.46419 158.374 8.17232 158.488 7.9509 158.716C7.72948 158.944 7.61877 159.246 7.61877 159.622V159.692H9.97387V159.602C9.97387 159.226 9.86987 158.927 9.66187 158.706C9.46058 158.485 9.18213 158.374 8.82651 158.374ZM14.811 162.863C14.2406 162.863 13.7475 162.775 13.3315 162.601C12.9155 162.42 12.5901 162.178 12.3552 161.876L13.1101 161.192C13.3248 161.427 13.5697 161.608 13.8448 161.735C14.1266 161.863 14.452 161.927 14.821 161.927C15.1431 161.927 15.4014 161.873 15.596 161.766C15.7906 161.658 15.8879 161.494 15.8879 161.273C15.8879 161.085 15.8208 160.957 15.6866 160.89C15.5591 160.823 15.388 160.773 15.1733 160.739L14.3379 160.608C14.1232 160.575 13.9119 160.528 13.7039 160.467C13.5026 160.4 13.3214 160.31 13.1604 160.196C13.0061 160.082 12.8819 159.937 12.788 159.763C12.6941 159.582 12.6471 159.364 12.6471 159.109C12.6471 158.565 12.8484 158.149 13.251 157.861C13.6603 157.572 14.2205 157.428 14.9317 157.428C15.435 157.428 15.861 157.498 16.2099 157.639C16.5656 157.78 16.8574 157.978 17.0856 158.233L16.4112 158.978C16.2636 158.817 16.0657 158.676 15.8174 158.555C15.5759 158.428 15.2672 158.364 14.8915 158.364C14.2339 158.364 13.9052 158.569 13.9052 158.978C13.9052 159.166 13.9723 159.297 14.1065 159.37C14.2406 159.437 14.4151 159.488 14.6298 159.521L15.4551 159.652C15.6765 159.686 15.8879 159.736 16.0892 159.803C16.2972 159.863 16.4783 159.951 16.6326 160.065C16.7937 160.179 16.9212 160.323 17.0151 160.498C17.109 160.672 17.156 160.887 17.156 161.142C17.156 161.678 16.948 162.101 16.532 162.41C16.1227 162.712 15.549 162.863 14.811 162.863ZM21.1879 156.743C20.886 156.743 20.6713 156.68 20.5438 156.552C20.423 156.425 20.3627 156.27 20.3627 156.089V155.848C20.3627 155.667 20.423 155.512 20.5438 155.385C20.6713 155.257 20.886 155.194 21.1879 155.194C21.4899 155.194 21.7012 155.257 21.822 155.385C21.9495 155.512 22.0132 155.667 22.0132 155.848V156.089C22.0132 156.27 21.9495 156.425 21.822 156.552C21.7012 156.68 21.4899 156.743 21.1879 156.743ZM18.8328 161.725H20.5438V158.565H18.8328V157.549H21.8321V161.725H23.4223V162.742H18.8328V161.725ZM29.6785 163.285C29.6785 163.829 29.4503 164.228 28.9941 164.483C28.5445 164.745 27.84 164.876 26.8805 164.876C26.4108 164.876 26.0183 164.845 25.703 164.785C25.3876 164.731 25.1327 164.651 24.9381 164.543C24.7502 164.436 24.616 164.305 24.5355 164.151C24.455 164.003 24.4147 163.836 24.4147 163.648C24.4147 163.359 24.4986 163.138 24.6663 162.983C24.8341 162.829 25.0689 162.715 25.3708 162.641V162.561C25.1696 162.494 25.0085 162.4 24.8878 162.279C24.7737 162.158 24.7167 161.99 24.7167 161.776C24.7167 161.521 24.8005 161.33 24.9683 161.202C25.1427 161.075 25.3708 160.977 25.6527 160.91V160.86C25.344 160.712 25.1025 160.504 24.928 160.236C24.7536 159.967 24.6663 159.642 24.6663 159.26C24.6663 158.971 24.7167 158.716 24.8173 158.495C24.9247 158.267 25.0723 158.075 25.2601 157.921C25.4547 157.76 25.6862 157.639 25.9546 157.559C26.223 157.471 26.5216 157.428 26.8503 157.428C27.1992 157.428 27.5146 157.475 27.7964 157.569V157.347C27.7964 157.146 27.8601 156.978 27.9876 156.844C28.1218 156.71 28.3063 156.643 28.5412 156.643H29.4772V157.609H28.2493V157.78C28.5043 157.934 28.6988 158.136 28.833 158.384C28.9739 158.626 29.0444 158.917 29.0444 159.26C29.0444 159.548 28.9907 159.806 28.8834 160.035C28.7827 160.263 28.6351 160.454 28.4405 160.608C28.2527 160.763 28.0212 160.883 27.7461 160.971C27.4777 161.051 27.1791 161.091 26.8503 161.091C26.7161 161.091 26.5853 161.088 26.4578 161.081C26.337 161.068 26.2196 161.044 26.1056 161.011C26.0116 161.044 25.921 161.098 25.8338 161.172C25.7466 161.246 25.703 161.343 25.703 161.464C25.703 161.625 25.7801 161.725 25.9345 161.766C26.0888 161.799 26.2733 161.816 26.488 161.816H27.6656C28.0279 161.816 28.3365 161.853 28.5915 161.927C28.8465 161.994 29.0545 162.094 29.2155 162.229C29.3765 162.356 29.4939 162.51 29.5678 162.692C29.6416 162.873 29.6785 163.071 29.6785 163.285ZM28.4707 163.376C28.4707 163.222 28.407 163.098 28.2795 163.004C28.1587 162.916 27.9306 162.873 27.5951 162.873H25.8036C25.6023 162.987 25.5017 163.155 25.5017 163.376C25.5017 163.557 25.5755 163.708 25.7231 163.829C25.8774 163.95 26.1358 164.01 26.4981 164.01H27.3334C28.0916 164.01 28.4707 163.799 28.4707 163.376ZM26.8503 160.246C27.1791 160.246 27.4207 160.169 27.575 160.014C27.7293 159.853 27.8065 159.645 27.8065 159.39V159.129C27.8065 158.874 27.7293 158.669 27.575 158.515C27.4207 158.354 27.1791 158.273 26.8503 158.273C26.5283 158.273 26.2901 158.354 26.1358 158.515C25.9814 158.669 25.9043 158.874 25.9043 159.129V159.39C25.9043 159.645 25.9814 159.853 26.1358 160.014C26.2901 160.169 26.5283 160.246 26.8503 160.246ZM30.6709 162.742V157.549H31.9592V158.465H32.0095C32.1236 158.183 32.298 157.941 32.5329 157.74C32.7744 157.532 33.1065 157.428 33.5292 157.428C34.0392 157.428 34.4518 157.599 34.7672 157.941C35.0892 158.277 35.2503 158.76 35.2503 159.39V162.742H33.962V159.572C33.962 158.82 33.6366 158.444 32.9858 158.444C32.8516 158.444 32.7241 158.461 32.6033 158.495C32.4825 158.528 32.3718 158.582 32.2712 158.656C32.1772 158.723 32.1001 158.807 32.0397 158.907C31.986 159.008 31.9592 159.129 31.9592 159.27V162.742H30.6709Z" fill="white"/>
<defs>
<radialGradient id="paint0_radial_241_2710" cx="0" cy="0" r="1" gradientUnits="userSpaceOnUse" gradientTransform="translate(117 3.00003) rotate(79.176) scale(404.7 392.797)">
<stop stop-color="#B700F8"/>
<stop offset="0.378125" stop-color="#1136FA"/>
<stop offset="0.732292" stop-color="#FA6161" stop-opacity="0.74"/>
<stop offset="0.857292" stop-color="#CE1F6F" stop-opacity="0.65"/>
</radialGradient>
<clipPath id="clip0_241_2710">
<rect width="21.2473" height="21.2473" fill="white" transform="translate(8.17578 120.29)"/>
</clipPath>
</defs>
</svg>
