<svg width="897" height="330" viewBox="0 0 897 330" fill="none" xmlns="http://www.w3.org/2000/svg">
<line x1="61.5" y1="1" x2="61.5" y2="329" stroke="url(#paint0_linear_5_465)" stroke-opacity="0.15"/>
<line x1="121.5" y1="1" x2="121.5" y2="329" stroke="url(#paint1_linear_5_465)" stroke-opacity="0.15"/>
<line x1="181.5" y1="1" x2="181.5" y2="329" stroke="url(#paint2_linear_5_465)" stroke-opacity="0.15"/>
<line x1="241.5" y1="1" x2="241.5" y2="329" stroke="url(#paint3_linear_5_465)" stroke-opacity="0.15"/>
<line x1="301.5" y1="1" x2="301.5" y2="329" stroke="url(#paint4_linear_5_465)" stroke-opacity="0.15"/>
<line x1="361.5" y1="1" x2="361.5" y2="329" stroke="url(#paint5_linear_5_465)" stroke-opacity="0.15"/>
<line x1="421.5" y1="1" x2="421.5" y2="329" stroke="url(#paint6_linear_5_465)" stroke-opacity="0.15"/>
<line x1="481.5" y1="1" x2="481.5" y2="329" stroke="url(#paint7_linear_5_465)" stroke-opacity="0.15"/>
<line x1="541.5" y1="1" x2="541.5" y2="329" stroke="url(#paint8_linear_5_465)" stroke-opacity="0.15"/>
<line x1="601.5" y1="1" x2="601.5" y2="329" stroke="url(#paint9_linear_5_465)" stroke-opacity="0.15"/>
<line x1="661.5" y1="1" x2="661.5" y2="329" stroke="url(#paint10_linear_5_465)" stroke-opacity="0.15"/>
<line x1="721.5" y1="1" x2="721.5" y2="329" stroke="url(#paint11_linear_5_465)" stroke-opacity="0.15"/>
<line x1="781.5" y1="1" x2="781.5" y2="329" stroke="url(#paint12_linear_5_465)" stroke-opacity="0.15"/>
<line x1="841.5" y1="1" x2="841.5" y2="329" stroke="url(#paint13_linear_5_465)" stroke-opacity="0.15"/>
<line x1="1" y1="48.5" x2="896" y2="48.5001" stroke="url(#paint14_linear_5_465)" stroke-opacity="0.15"/>
<line x1="1" y1="96.5" x2="896" y2="96.5001" stroke="url(#paint15_linear_5_465)" stroke-opacity="0.15"/>
<line x1="1" y1="144.5" x2="896" y2="144.5" stroke="url(#paint16_linear_5_465)" stroke-opacity="0.15"/>
<line x1="1" y1="185.5" x2="896" y2="185.5" stroke="url(#paint17_linear_5_465)" stroke-opacity="0.15"/>
<line x1="1" y1="232.5" x2="896" y2="232.5" stroke="url(#paint18_linear_5_465)" stroke-opacity="0.1"/>
<line x1="1" y1="280.5" x2="896" y2="280.5" stroke="url(#paint19_linear_5_465)" stroke-opacity="0.05"/>
<rect x="1" y="1" width="895" height="328" stroke="url(#paint20_linear_5_465)" stroke-opacity="0.15"/>
<defs>
<linearGradient id="paint0_linear_5_465" x1="61" y1="-5.5" x2="61" y2="451.5" gradientUnits="userSpaceOnUse">
<stop stop-color="#D5E6FB"/>
<stop offset="1" stop-color="#D5E6FB" stop-opacity="0"/>
</linearGradient>
<linearGradient id="paint1_linear_5_465" x1="121" y1="1" x2="121" y2="443" gradientUnits="userSpaceOnUse">
<stop stop-color="#D5E6FB"/>
<stop offset="1" stop-color="#D5E6FB" stop-opacity="0"/>
</linearGradient>
<linearGradient id="paint2_linear_5_465" x1="181" y1="1" x2="181" y2="427.5" gradientUnits="userSpaceOnUse">
<stop stop-color="#D5E6FB"/>
<stop offset="1" stop-color="#D5E6FB" stop-opacity="0"/>
</linearGradient>
<linearGradient id="paint3_linear_5_465" x1="241" y1="1" x2="241" y2="402" gradientUnits="userSpaceOnUse">
<stop stop-color="#D5E6FB"/>
<stop offset="1" stop-color="#D5E6FB" stop-opacity="0"/>
</linearGradient>
<linearGradient id="paint4_linear_5_465" x1="301" y1="1" x2="301" y2="395" gradientUnits="userSpaceOnUse">
<stop stop-color="#D5E6FB"/>
<stop offset="1" stop-color="#D5E6FB" stop-opacity="0"/>
</linearGradient>
<linearGradient id="paint5_linear_5_465" x1="361" y1="1" x2="361" y2="420.5" gradientUnits="userSpaceOnUse">
<stop stop-color="#D5E6FB"/>
<stop offset="1" stop-color="#D5E6FB" stop-opacity="0"/>
</linearGradient>
<linearGradient id="paint6_linear_5_465" x1="421" y1="1" x2="421" y2="415.5" gradientUnits="userSpaceOnUse">
<stop stop-color="#D5E6FB"/>
<stop offset="1" stop-color="#D5E6FB" stop-opacity="0"/>
</linearGradient>
<linearGradient id="paint7_linear_5_465" x1="481" y1="1" x2="481" y2="425.5" gradientUnits="userSpaceOnUse">
<stop stop-color="#D5E6FB"/>
<stop offset="1" stop-color="#D5E6FB" stop-opacity="0"/>
</linearGradient>
<linearGradient id="paint8_linear_5_465" x1="541" y1="1" x2="541" y2="424" gradientUnits="userSpaceOnUse">
<stop stop-color="#D5E6FB"/>
<stop offset="1" stop-color="#D5E6FB" stop-opacity="0"/>
</linearGradient>
<linearGradient id="paint9_linear_5_465" x1="601" y1="8" x2="601" y2="415.5" gradientUnits="userSpaceOnUse">
<stop stop-color="#D5E6FB"/>
<stop offset="1" stop-color="#D5E6FB" stop-opacity="0"/>
</linearGradient>
<linearGradient id="paint10_linear_5_465" x1="661" y1="1" x2="661" y2="404" gradientUnits="userSpaceOnUse">
<stop stop-color="#D5E6FB"/>
<stop offset="1" stop-color="#D5E6FB" stop-opacity="0"/>
</linearGradient>
<linearGradient id="paint11_linear_5_465" x1="721" y1="1" x2="721" y2="401.5" gradientUnits="userSpaceOnUse">
<stop stop-color="#D5E6FB"/>
<stop offset="1" stop-color="#D5E6FB" stop-opacity="0"/>
</linearGradient>
<linearGradient id="paint12_linear_5_465" x1="781" y1="1" x2="781" y2="411.5" gradientUnits="userSpaceOnUse">
<stop stop-color="#D5E6FB"/>
<stop offset="1" stop-color="#D5E6FB" stop-opacity="0"/>
</linearGradient>
<linearGradient id="paint13_linear_5_465" x1="841" y1="1" x2="841" y2="418" gradientUnits="userSpaceOnUse">
<stop stop-color="#D5E6FB"/>
<stop offset="1" stop-color="#D5E6FB" stop-opacity="0"/>
</linearGradient>
<linearGradient id="paint14_linear_5_465" x1="448.5" y1="49" x2="448.5" y2="50" gradientUnits="userSpaceOnUse">
<stop stop-color="#D5E6FB"/>
<stop offset="1" stop-color="#D5E6FB" stop-opacity="0"/>
</linearGradient>
<linearGradient id="paint15_linear_5_465" x1="448.5" y1="97" x2="448.5" y2="98" gradientUnits="userSpaceOnUse">
<stop stop-color="#D5E6FB"/>
<stop offset="1" stop-color="#D5E6FB" stop-opacity="0"/>
</linearGradient>
<linearGradient id="paint16_linear_5_465" x1="448.5" y1="145" x2="448.5" y2="146" gradientUnits="userSpaceOnUse">
<stop stop-color="#D5E6FB"/>
<stop offset="1" stop-color="#D5E6FB" stop-opacity="0"/>
</linearGradient>
<linearGradient id="paint17_linear_5_465" x1="448.5" y1="186" x2="448.5" y2="187" gradientUnits="userSpaceOnUse">
<stop stop-color="#D5E6FB"/>
<stop offset="1" stop-color="#D5E6FB" stop-opacity="0"/>
</linearGradient>
<linearGradient id="paint18_linear_5_465" x1="448.5" y1="233" x2="448.5" y2="234" gradientUnits="userSpaceOnUse">
<stop stop-color="#D5E6FB"/>
<stop offset="1" stop-color="#D5E6FB" stop-opacity="0"/>
</linearGradient>
<linearGradient id="paint19_linear_5_465" x1="448.5" y1="281" x2="448.5" y2="282" gradientUnits="userSpaceOnUse">
<stop stop-color="#D5E6FB"/>
<stop offset="1" stop-color="#D5E6FB" stop-opacity="0"/>
</linearGradient>
<linearGradient id="paint20_linear_5_465" x1="448.5" y1="1" x2="448.5" y2="329" gradientUnits="userSpaceOnUse">
<stop stop-color="#D5E6FB"/>
<stop offset="1" stop-color="#D5E6FB" stop-opacity="0.41"/>
</linearGradient>
</defs>
</svg>
