<svg width="935" height="328" viewBox="0 0 935 328" fill="none" xmlns="http://www.w3.org/2000/svg">
<rect x="0.0170778" y="-0.0170778" width="1.48007" height="1.51423" rx="0.0967741" transform="matrix(1 0 0 -1 468.818 112.514)" fill="#011320" stroke="#2F80ED" stroke-width="0.0341556"/>
<rect x="348.5" y="42.5" width="248" height="255.606" rx="124" fill="#011320" stroke="url(#paint0_radial_241_2671)" stroke-width="3"/>
<path d="M397.889 182.634V156.554H407.79C410.331 156.554 412.274 157.277 413.619 158.721C414.964 160.166 415.637 162.134 415.637 164.625C415.637 167.116 414.964 169.083 413.619 170.528C412.274 171.973 410.331 172.695 407.79 172.695H402.784V182.634H397.889ZM402.784 168.697H406.782C408.102 168.697 409.048 168.436 409.621 167.913C410.194 167.365 410.481 166.505 410.481 165.335V163.915C410.481 162.744 410.194 161.897 409.621 161.374C409.048 160.826 408.102 160.552 406.782 160.552H402.784V168.697ZM420.106 178.86H424.888V167.128H420.106V163.354H429.67V168.623H429.969C430.144 167.95 430.38 167.302 430.679 166.68C431.003 166.032 431.402 165.472 431.875 164.998C432.373 164.5 432.971 164.102 433.668 163.803C434.366 163.504 435.2 163.354 436.171 163.354H438.264V167.838H434.303C432.859 167.838 431.725 168.261 430.903 169.108C430.081 169.955 429.67 171.039 429.67 172.359V178.86H436.358V182.634H420.106V178.86ZM450.915 183.082C449.445 183.082 448.125 182.845 446.955 182.372C445.809 181.899 444.825 181.226 444.003 180.354C443.206 179.483 442.583 178.424 442.135 177.179C441.711 175.933 441.5 174.538 441.5 172.994C441.5 171.45 441.711 170.055 442.135 168.809C442.583 167.564 443.206 166.505 444.003 165.634C444.825 164.762 445.809 164.089 446.955 163.616C448.125 163.143 449.445 162.906 450.915 162.906C452.36 162.906 453.667 163.143 454.838 163.616C456.009 164.089 456.993 164.762 457.79 165.634C458.612 166.505 459.234 167.564 459.658 168.809C460.106 170.055 460.33 171.45 460.33 172.994C460.33 174.538 460.106 175.933 459.658 177.179C459.234 178.424 458.612 179.483 457.79 180.354C456.993 181.226 456.009 181.899 454.838 182.372C453.667 182.845 452.36 183.082 450.915 183.082ZM450.915 179.42C452.285 179.42 453.369 179.009 454.166 178.187C454.963 177.341 455.361 176.108 455.361 174.488V171.499C455.361 169.88 454.963 168.66 454.166 167.838C453.369 166.991 452.285 166.568 450.915 166.568C449.545 166.568 448.462 166.991 447.665 167.838C446.867 168.66 446.469 169.88 446.469 171.499V174.488C446.469 176.108 446.867 177.341 447.665 178.187C448.462 179.009 449.545 179.42 450.915 179.42ZM477.166 179.234H476.905C476.382 180.404 475.659 181.338 474.738 182.036C473.841 182.733 472.646 183.082 471.151 183.082C470.055 183.082 469.046 182.883 468.125 182.484C467.228 182.061 466.456 181.438 465.808 180.616C465.161 179.769 464.662 178.71 464.314 177.44C463.965 176.17 463.791 174.688 463.791 172.994C463.791 169.606 464.463 167.078 465.808 165.409C467.153 163.741 468.934 162.906 471.151 162.906C472.646 162.906 473.841 163.255 474.738 163.952C475.659 164.65 476.382 165.584 476.905 166.754H477.166V154.985H481.949V182.634H477.166V179.234ZM473.169 179.271C473.717 179.271 474.227 179.209 474.7 179.084C475.199 178.935 475.622 178.735 475.971 178.486C476.344 178.212 476.631 177.876 476.83 177.478C477.054 177.054 477.166 176.568 477.166 176.02V169.968C477.166 169.42 477.054 168.946 476.83 168.548C476.631 168.124 476.344 167.788 475.971 167.539C475.622 167.265 475.199 167.066 474.7 166.941C474.227 166.792 473.717 166.717 473.169 166.717C471.774 166.717 470.69 167.141 469.918 167.987C469.171 168.834 468.797 169.993 468.797 171.462V174.526C468.797 175.995 469.171 177.154 469.918 178.001C470.69 178.847 471.774 179.271 473.169 179.271ZM499.345 179.234H499.158C498.735 180.28 498.075 181.189 497.178 181.961C496.306 182.708 495.086 183.082 493.517 183.082C491.624 183.082 490.079 182.459 488.884 181.214C487.713 179.943 487.128 178.138 487.128 175.796V163.354H491.91V175.124C491.91 177.913 493.118 179.308 495.534 179.308C496.007 179.308 496.468 179.246 496.917 179.121C497.39 178.997 497.801 178.81 498.15 178.561C498.523 178.287 498.81 177.963 499.009 177.59C499.233 177.216 499.345 176.768 499.345 176.245V163.354H504.128V182.634H499.345V179.234ZM518.871 183.082C517.402 183.082 516.081 182.845 514.911 182.372C513.74 181.899 512.744 181.226 511.922 180.354C511.125 179.483 510.502 178.424 510.054 177.179C509.63 175.933 509.418 174.538 509.418 172.994C509.418 171.45 509.63 170.055 510.054 168.809C510.502 167.564 511.125 166.505 511.922 165.634C512.744 164.762 513.728 164.089 514.873 163.616C516.044 163.143 517.364 162.906 518.834 162.906C520.876 162.906 522.52 163.33 523.766 164.176C525.011 165.023 525.958 166.144 526.605 167.539L522.906 169.557C522.558 168.735 522.06 168.075 521.412 167.576C520.789 167.053 519.93 166.792 518.834 166.792C517.414 166.792 516.318 167.203 515.546 168.025C514.799 168.847 514.425 169.968 514.425 171.387V174.601C514.425 175.995 514.799 177.116 515.546 177.963C516.318 178.785 517.439 179.196 518.909 179.196C520.054 179.196 520.964 178.935 521.636 178.412C522.333 177.888 522.894 177.191 523.317 176.319L526.904 178.449C526.257 179.819 525.273 180.94 523.953 181.812C522.657 182.658 520.964 183.082 518.871 183.082ZM541.835 182.634C539.991 182.634 538.634 182.148 537.762 181.176C536.89 180.205 536.454 178.947 536.454 177.403V167.128H530.85V163.354H534.661C535.433 163.354 535.981 163.205 536.305 162.906C536.629 162.582 536.791 162.022 536.791 161.225V156.554H541.237V163.354H549.083V167.128H541.237V178.86H549.083V182.634H541.835Z" fill="white"/>
<rect x="453.984" y="20" width="32.7097" height="32.7097" rx="16.3548" fill="#2F80ED"/>
<path d="M467.51 37.2983C466.887 37.6097 466.368 38.072 465.981 38.6476C465.764 38.9779 465.764 39.393 465.981 39.7233C466.368 40.2988 466.887 40.7612 467.51 41.0725" stroke="#F5F5F5" stroke-width="1.57258" stroke-linecap="round" stroke-linejoin="round"/>
<path d="M473.369 37.2983C473.992 37.6097 474.511 38.072 474.898 38.6476C475.115 38.9779 475.115 39.393 474.898 39.7233C474.511 40.2988 473.992 40.7612 473.369 41.0725" stroke="#F5F5F5" stroke-width="1.57258" stroke-linecap="round" stroke-linejoin="round"/>
<path d="M467.511 45.7904H473.172C477.89 45.7904 479.777 43.9033 479.777 39.1856V33.5243C479.777 28.8065 477.89 26.9194 473.172 26.9194H467.511C462.793 26.9194 460.906 28.8065 460.906 33.5243V39.1856C460.906 43.9033 462.793 45.7904 467.511 45.7904Z" stroke="#F5F5F5" stroke-width="1.57258" stroke-linecap="round" stroke-linejoin="round"/>
<path d="M461.123 32.59L479.258 32.5806" stroke="#F5F5F5" stroke-width="1.57258" stroke-linecap="round" stroke-linejoin="round"/>
<path d="M437.573 61.7169H439.757C440.669 61.7169 441.347 62.0188 441.79 62.6227C442.239 63.2266 442.464 64.0955 442.464 65.2294C442.464 66.3701 442.239 67.2423 441.79 67.8462C441.347 68.4434 440.669 68.7419 439.757 68.7419H437.573V61.7169ZM439.666 67.6852C440.149 67.6852 440.505 67.5275 440.733 67.2121C440.968 66.8968 441.085 66.4372 441.085 65.8333V64.6155C441.085 64.0183 440.968 63.5621 440.733 63.2467C440.505 62.9314 440.149 62.7737 439.666 62.7737H438.871V67.6852H439.666ZM446.013 68.8627C445.597 68.8627 445.228 68.799 444.906 68.6715C444.584 68.544 444.312 68.3628 444.09 68.128C443.876 67.8932 443.711 67.6114 443.597 67.2826C443.483 66.9471 443.426 66.5714 443.426 66.1554C443.426 65.7327 443.483 65.3536 443.597 65.0181C443.718 64.6826 443.886 64.3974 444.101 64.1626C444.315 63.9277 444.574 63.7466 444.876 63.6191C445.184 63.4916 445.53 63.4279 445.912 63.4279C446.288 63.4279 446.627 63.4916 446.929 63.6191C447.231 63.7399 447.486 63.9143 447.694 64.1425C447.908 64.3706 448.073 64.6457 448.187 64.9677C448.301 65.2898 448.358 65.6454 448.358 66.0346V66.4573H444.714V66.5881C444.714 66.9639 444.832 67.2692 445.067 67.504C445.302 67.7321 445.63 67.8462 446.053 67.8462C446.375 67.8462 446.65 67.7825 446.878 67.655C447.113 67.5208 447.308 67.3463 447.462 67.1316L448.197 67.8663C448.009 68.1414 447.734 68.3763 447.372 68.5708C447.016 68.7654 446.563 68.8627 446.013 68.8627ZM445.922 64.3739C445.56 64.3739 445.268 64.488 445.047 64.7161C444.825 64.9443 444.714 65.2462 444.714 65.6219V65.6924H447.07V65.6018C447.07 65.2261 446.966 64.9275 446.758 64.7061C446.556 64.4847 446.278 64.3739 445.922 64.3739ZM451.152 68.7419L449.29 63.5487H450.639L451.333 65.7528L451.917 67.665H451.987L452.571 65.7528L453.265 63.5487H454.564L452.702 68.7419H451.152ZM458.082 68.8627C457.666 68.8627 457.297 68.799 456.975 68.6715C456.653 68.544 456.381 68.3628 456.16 68.128C455.945 67.8932 455.781 67.6114 455.667 67.2826C455.553 66.9471 455.496 66.5714 455.496 66.1554C455.496 65.7327 455.553 65.3536 455.667 65.0181C455.788 64.6826 455.955 64.3974 456.17 64.1626C456.385 63.9277 456.643 63.7466 456.945 63.6191C457.254 63.4916 457.599 63.4279 457.982 63.4279C458.357 63.4279 458.696 63.4916 458.998 63.6191C459.3 63.7399 459.555 63.9143 459.763 64.1425C459.978 64.3706 460.142 64.6457 460.256 64.9677C460.37 65.2898 460.427 65.6454 460.427 66.0346V66.4573H456.784V66.5881C456.784 66.9639 456.901 67.2692 457.136 67.504C457.371 67.7321 457.7 67.8462 458.123 67.8462C458.445 67.8462 458.72 67.7825 458.948 67.655C459.183 67.5208 459.377 67.3463 459.532 67.1316L460.266 67.8663C460.078 68.1414 459.803 68.3763 459.441 68.5708C459.085 68.7654 458.633 68.8627 458.082 68.8627ZM457.992 64.3739C457.629 64.3739 457.338 64.488 457.116 64.7161C456.895 64.9443 456.784 65.2462 456.784 65.6219V65.6924H459.139V65.6018C459.139 65.2261 459.035 64.9275 458.827 64.7061C458.626 64.4847 458.347 64.3739 457.992 64.3739ZM461.702 67.7254H463.352V62.3107H461.702V61.2942H464.64V67.7254H466.301V68.7419H461.702V67.7254ZM470.031 68.8627C469.635 68.8627 469.28 68.799 468.964 68.6715C468.656 68.544 468.391 68.3628 468.169 68.128C467.954 67.8932 467.787 67.608 467.666 67.2725C467.552 66.937 467.495 66.5613 467.495 66.1453C467.495 65.7293 467.552 65.3536 467.666 65.0181C467.787 64.6826 467.954 64.3974 468.169 64.1626C468.391 63.9277 468.656 63.7466 468.964 63.6191C469.28 63.4916 469.635 63.4279 470.031 63.4279C470.42 63.4279 470.773 63.4916 471.088 63.6191C471.403 63.7466 471.668 63.9277 471.883 64.1626C472.104 64.3974 472.272 64.6826 472.386 65.0181C472.507 65.3536 472.567 65.7293 472.567 66.1453C472.567 66.5613 472.507 66.937 472.386 67.2725C472.272 67.608 472.104 67.8932 471.883 68.128C471.668 68.3628 471.403 68.544 471.088 68.6715C470.773 68.799 470.42 68.8627 470.031 68.8627ZM470.031 67.8764C470.4 67.8764 470.692 67.7657 470.907 67.5443C471.121 67.3161 471.229 66.984 471.229 66.5479V65.7427C471.229 65.3066 471.121 64.9778 470.907 64.7564C470.692 64.5283 470.4 64.4142 470.031 64.4142C469.662 64.4142 469.37 64.5283 469.156 64.7564C468.941 64.9778 468.833 65.3066 468.833 65.7427V66.5479C468.833 66.984 468.941 67.3161 469.156 67.5443C469.37 67.7657 469.662 67.8764 470.031 67.8764ZM473.741 63.5487H475.029V64.4645H475.1C475.241 64.1492 475.432 63.8976 475.673 63.7097C475.922 63.5218 476.247 63.4279 476.65 63.4279C476.945 63.4279 477.213 63.4849 477.455 63.599C477.703 63.7063 477.914 63.8741 478.089 64.1022C478.263 64.3236 478.398 64.6054 478.491 64.9476C478.585 65.2898 478.632 65.689 478.632 66.1453C478.632 66.6016 478.585 67.0008 478.491 67.343C478.398 67.6852 478.263 67.9703 478.089 68.1985C477.914 68.4199 477.703 68.5876 477.455 68.7017C477.213 68.809 476.945 68.8627 476.65 68.8627C476.247 68.8627 475.922 68.7688 475.673 68.5809C475.432 68.393 475.241 68.1414 475.1 67.8261H475.029V70.7548H473.741V63.5487ZM476.106 67.8361C476.482 67.8361 476.77 67.7221 476.972 67.4939C477.18 67.2658 477.284 66.9538 477.284 66.5579V65.7327C477.284 65.3368 477.18 65.0248 476.972 64.7967C476.77 64.5685 476.482 64.4545 476.106 64.4545C475.811 64.4545 475.556 64.5283 475.341 64.6759C475.133 64.8168 475.029 65.0348 475.029 65.3301V66.9605C475.029 67.2557 475.133 67.4772 475.341 67.6248C475.556 67.7657 475.811 67.8361 476.106 67.8361ZM479.454 68.7419V63.5487H480.521V64.2632H480.581C480.661 64.0351 480.776 63.8405 480.923 63.6795C481.077 63.5117 481.292 63.4279 481.567 63.4279C481.829 63.4279 482.037 63.505 482.191 63.6594C482.346 63.807 482.446 64.0183 482.493 64.2934H482.544C482.631 64.0586 482.758 63.8573 482.926 63.6896C483.1 63.5151 483.345 63.4279 483.661 63.4279C484.043 63.4279 484.318 63.5654 484.486 63.8405C484.654 64.1156 484.738 64.5216 484.738 65.0583V68.7419H483.681V65.2093C483.681 64.9074 483.637 64.696 483.55 64.5752C483.469 64.4545 483.345 64.3941 483.178 64.3941C483.023 64.3941 482.892 64.4444 482.785 64.545C482.684 64.6457 482.634 64.8 482.634 65.008V68.7419H481.567V65.2093C481.567 64.9074 481.527 64.696 481.446 64.5752C481.366 64.4545 481.242 64.3941 481.074 64.3941C480.913 64.3941 480.779 64.4444 480.672 64.545C480.571 64.6457 480.521 64.8 480.521 65.008V68.7419H479.454ZM488.256 68.8627C487.84 68.8627 487.471 68.799 487.149 68.6715C486.827 68.544 486.555 68.3628 486.334 68.128C486.119 67.8932 485.955 67.6114 485.841 67.2826C485.727 66.9471 485.67 66.5714 485.67 66.1554C485.67 65.7327 485.727 65.3536 485.841 65.0181C485.962 64.6826 486.129 64.3974 486.344 64.1626C486.559 63.9277 486.817 63.7466 487.119 63.6191C487.428 63.4916 487.773 63.4279 488.156 63.4279C488.531 63.4279 488.87 63.4916 489.172 63.6191C489.474 63.7399 489.729 63.9143 489.937 64.1425C490.152 64.3706 490.316 64.6457 490.43 64.9677C490.544 65.2898 490.601 65.6454 490.601 66.0346V66.4573H486.958V66.5881C486.958 66.9639 487.075 67.2692 487.31 67.504C487.545 67.7321 487.874 67.8462 488.297 67.8462C488.619 67.8462 488.894 67.7825 489.122 67.655C489.357 67.5208 489.551 67.3463 489.706 67.1316L490.44 67.8663C490.252 68.1414 489.977 68.3763 489.615 68.5708C489.259 68.7654 488.806 68.8627 488.256 68.8627ZM488.166 64.3739C487.803 64.3739 487.511 64.488 487.29 64.7161C487.069 64.9443 486.958 65.2462 486.958 65.6219V65.6924H489.313V65.6018C489.313 65.2261 489.209 64.9275 489.001 64.7061C488.8 64.4847 488.521 64.3739 488.166 64.3739ZM491.906 68.7419V63.5487H493.194V64.4645H493.244C493.358 64.1827 493.533 63.9412 493.768 63.7399C494.009 63.5319 494.341 63.4279 494.764 63.4279C495.274 63.4279 495.687 63.599 496.002 63.9412C496.324 64.2767 496.485 64.7597 496.485 65.3905V68.7419H495.197V65.5716C495.197 64.8201 494.871 64.4444 494.221 64.4444C494.086 64.4444 493.959 64.4612 493.838 64.4947C493.717 64.5283 493.607 64.5819 493.506 64.6557C493.412 64.7228 493.335 64.8067 493.275 64.9074C493.221 65.008 493.194 65.1288 493.194 65.2697V68.7419H491.906ZM500.557 68.7419C500.061 68.7419 499.695 68.6111 499.46 68.3494C499.225 68.0877 499.108 67.7489 499.108 67.3329V64.5652H497.598V63.5487H498.625C498.833 63.5487 498.981 63.5084 499.068 63.4279C499.155 63.3407 499.199 63.1897 499.199 62.975V61.7169H500.396V63.5487H502.51V64.5652H500.396V67.7254H502.51V68.7419H500.557Z" fill="white"/>
<rect x="402.712" y="277.902" width="3.01218" height="3.035" rx="0.193966" fill="#011320" stroke="#CE1F6F" stroke-width="0.0684587"/>
<rect x="387.863" y="253" width="32.7097" height="32.7097" rx="16.3548" fill="#CE1F6F"/>
<path d="M410.824 273.129V264.165C410.824 263.127 409.975 262.278 408.937 262.278H404.691" stroke="#F5F5F5" stroke-width="1.57258" stroke-linecap="round" stroke-linejoin="round"/>
<path d="M407.051 259.919L404.221 262.278L407.051 264.637" stroke="#F5F5F5" stroke-width="1.57258" stroke-linecap="round" stroke-linejoin="round"/>
<path d="M397.613 266.524V273.129" stroke="#F5F5F5" stroke-width="1.57258" stroke-linecap="round" stroke-linejoin="round"/>
<path d="M397.852 266.052C399.545 266.052 400.918 264.68 400.918 262.986C400.918 261.292 399.545 259.919 397.852 259.919C396.158 259.919 394.785 261.292 394.785 262.986C394.785 264.68 396.158 266.052 397.852 266.052Z" stroke="#F5F5F5" stroke-width="1.57258" stroke-linecap="round" stroke-linejoin="round"/>
<path d="M397.616 278.79C399.179 278.79 400.446 277.523 400.446 275.96C400.446 274.396 399.179 273.129 397.616 273.129C396.052 273.129 394.785 274.396 394.785 275.96C394.785 277.523 396.052 278.79 397.616 278.79Z" stroke="#F5F5F5" stroke-width="1.57258" stroke-linecap="round" stroke-linejoin="round"/>
<path d="M410.825 278.79C412.388 278.79 413.655 277.523 413.655 275.96C413.655 274.396 412.388 273.129 410.825 273.129C409.261 273.129 407.994 274.396 407.994 275.96C407.994 277.523 409.261 278.79 410.825 278.79Z" stroke="#F5F5F5" stroke-width="1.57258" stroke-linecap="round" stroke-linejoin="round"/>
<path d="M380.522 301.742V294.717H383.189C383.873 294.717 384.397 294.911 384.759 295.301C385.121 295.69 385.303 296.22 385.303 296.891C385.303 297.562 385.121 298.092 384.759 298.481C384.397 298.87 383.873 299.065 383.189 299.065H381.84V301.742H380.522ZM381.84 297.988H382.917C383.273 297.988 383.528 297.917 383.682 297.777C383.837 297.629 383.914 297.397 383.914 297.082V296.7C383.914 296.384 383.837 296.156 383.682 296.015C383.528 295.868 383.273 295.794 382.917 295.794H381.84V297.988ZM386.476 300.725H388.127V295.311H386.476V294.294H389.415V300.725H391.076V301.742H386.476V300.725ZM396.718 301.742C396.403 301.742 396.158 301.665 395.983 301.51C395.816 301.349 395.715 301.128 395.681 300.846H395.631C395.537 301.168 395.353 301.42 395.077 301.601C394.802 301.775 394.464 301.863 394.061 301.863C393.538 301.863 393.122 301.725 392.813 301.45C392.504 301.175 392.35 300.793 392.35 300.303C392.35 299.256 393.118 298.733 394.655 298.733H395.571V298.39C395.571 298.062 395.49 297.813 395.329 297.646C395.168 297.478 394.906 297.394 394.544 297.394C394.215 297.394 393.95 297.458 393.749 297.585C393.548 297.713 393.377 297.877 393.236 298.078L392.501 297.454C392.662 297.166 392.92 296.924 393.276 296.73C393.638 296.529 394.105 296.428 394.675 296.428C395.359 296.428 395.893 296.589 396.275 296.911C396.664 297.226 396.859 297.699 396.859 298.33V300.776H397.473V301.742H396.718ZM394.494 300.977C394.802 300.977 395.057 300.907 395.259 300.766C395.467 300.618 395.571 300.42 395.571 300.172V299.477H394.685C393.98 299.477 393.628 299.699 393.628 300.142V300.343C393.628 300.551 393.705 300.709 393.86 300.816C394.014 300.923 394.225 300.977 394.494 300.977ZM398.576 301.742V296.549H399.864V297.465H399.915C400.029 297.183 400.203 296.941 400.438 296.74C400.679 296.532 401.012 296.428 401.434 296.428C401.944 296.428 402.357 296.599 402.672 296.941C402.994 297.277 403.155 297.76 403.155 298.39V301.742H401.867V298.572C401.867 297.82 401.542 297.444 400.891 297.444C400.757 297.444 400.629 297.461 400.508 297.495C400.388 297.528 400.277 297.582 400.176 297.656C400.082 297.723 400.005 297.807 399.945 297.907C399.891 298.008 399.864 298.129 399.864 298.27V301.742H398.576ZM404.611 301.742V296.549H405.899V297.465H405.949C406.063 297.183 406.238 296.941 406.473 296.74C406.714 296.532 407.046 296.428 407.469 296.428C407.979 296.428 408.392 296.599 408.707 296.941C409.029 297.277 409.19 297.76 409.19 298.39V301.742H407.902V298.572C407.902 297.82 407.576 297.444 406.926 297.444C406.791 297.444 406.664 297.461 406.543 297.495C406.422 297.528 406.312 297.582 406.211 297.656C406.117 297.723 406.04 297.807 405.98 297.907C405.926 298.008 405.899 298.129 405.899 298.27V301.742H404.611ZM413.232 295.743C412.93 295.743 412.715 295.68 412.588 295.552C412.467 295.425 412.407 295.27 412.407 295.089V294.848C412.407 294.667 412.467 294.512 412.588 294.385C412.715 294.257 412.93 294.194 413.232 294.194C413.534 294.194 413.745 294.257 413.866 294.385C413.994 294.512 414.057 294.667 414.057 294.848V295.089C414.057 295.27 413.994 295.425 413.866 295.552C413.745 295.68 413.534 295.743 413.232 295.743ZM410.877 300.725H412.588V297.565H410.877V296.549H413.876V300.725H415.466V301.742H410.877V300.725ZM416.68 301.742V296.549H417.969V297.465H418.019C418.133 297.183 418.307 296.941 418.542 296.74C418.784 296.532 419.116 296.428 419.539 296.428C420.049 296.428 420.461 296.599 420.777 296.941C421.099 297.277 421.26 297.76 421.26 298.39V301.742H419.971V298.572C419.971 297.82 419.646 297.444 418.995 297.444C418.861 297.444 418.733 297.461 418.613 297.495C418.492 297.528 418.381 297.582 418.281 297.656C418.187 297.723 418.109 297.807 418.049 297.907C417.995 298.008 417.969 298.129 417.969 298.27V301.742H416.68ZM427.757 302.285C427.757 302.829 427.529 303.228 427.073 303.483C426.623 303.745 425.919 303.876 424.959 303.876C424.49 303.876 424.097 303.845 423.782 303.785C423.467 303.731 423.212 303.651 423.017 303.543C422.829 303.436 422.695 303.305 422.614 303.151C422.534 303.003 422.494 302.836 422.494 302.648C422.494 302.359 422.578 302.138 422.745 301.983C422.913 301.829 423.148 301.715 423.45 301.641V301.561C423.249 301.494 423.087 301.4 422.967 301.279C422.853 301.158 422.796 300.99 422.796 300.776C422.796 300.521 422.879 300.33 423.047 300.202C423.222 300.075 423.45 299.977 423.732 299.91V299.86C423.423 299.712 423.181 299.504 423.007 299.236C422.833 298.967 422.745 298.642 422.745 298.26C422.745 297.971 422.796 297.716 422.896 297.495C423.004 297.267 423.151 297.075 423.339 296.921C423.534 296.76 423.765 296.639 424.034 296.559C424.302 296.471 424.601 296.428 424.929 296.428C425.278 296.428 425.594 296.475 425.875 296.569V296.347C425.875 296.146 425.939 295.978 426.067 295.844C426.201 295.71 426.385 295.643 426.62 295.643H427.556V296.609H426.328V296.78C426.583 296.934 426.778 297.136 426.912 297.384C427.053 297.626 427.123 297.917 427.123 298.26C427.123 298.548 427.07 298.806 426.962 299.035C426.862 299.263 426.714 299.454 426.519 299.608C426.332 299.763 426.1 299.883 425.825 299.971C425.557 300.051 425.258 300.091 424.929 300.091C424.795 300.091 424.664 300.088 424.537 300.081C424.416 300.068 424.299 300.044 424.185 300.011C424.091 300.044 424 300.098 423.913 300.172C423.826 300.246 423.782 300.343 423.782 300.464C423.782 300.625 423.859 300.725 424.013 300.766C424.168 300.799 424.352 300.816 424.567 300.816H425.745C426.107 300.816 426.415 300.853 426.67 300.927C426.925 300.994 427.133 301.094 427.294 301.229C427.455 301.356 427.573 301.51 427.647 301.692C427.721 301.873 427.757 302.071 427.757 302.285ZM426.55 302.376C426.55 302.222 426.486 302.098 426.358 302.004C426.238 301.916 426.01 301.873 425.674 301.873H423.883C423.681 301.987 423.581 302.155 423.581 302.376C423.581 302.557 423.654 302.708 423.802 302.829C423.956 302.95 424.215 303.01 424.577 303.01H425.412C426.171 303.01 426.55 302.799 426.55 302.376ZM424.929 299.246C425.258 299.246 425.5 299.169 425.654 299.014C425.808 298.853 425.885 298.645 425.885 298.39V298.129C425.885 297.874 425.808 297.669 425.654 297.515C425.5 297.354 425.258 297.273 424.929 297.273C424.607 297.273 424.369 297.354 424.215 297.515C424.06 297.669 423.983 297.874 423.983 298.129V298.39C423.983 298.645 424.06 298.853 424.215 299.014C424.369 299.169 424.607 299.246 424.929 299.246Z" fill="white"/>
<rect x="0.0736466" y="-0.0736466" width="6.4809" height="6.53" rx="0.417331" transform="matrix(1 0 0 -1 334.615 163.611)" fill="#011320" stroke="#7209B7" stroke-width="0.147293"/>
<rect x="321.27" y="134" width="33.944" height="32.7097" rx="16.3548" fill="#7209B7"/>
<g clip-path="url(#clip0_241_2671)">
<path d="M347.484 143.779C346.121 147.178 342.704 151.799 339.844 154.092L338.1 155.491C337.879 155.65 337.657 155.792 337.409 155.89C337.409 155.73 337.401 155.553 337.374 155.385C337.277 154.641 336.94 153.951 336.347 153.358C335.745 152.756 335.01 152.401 334.258 152.304C334.081 152.295 333.904 152.277 333.727 152.295C333.824 152.021 333.974 151.764 334.16 151.552L335.541 149.807C337.826 146.948 342.465 143.513 345.855 142.158C346.378 141.964 346.882 142.105 347.201 142.433C347.537 142.76 347.697 143.265 347.484 143.779Z" stroke="#FEFEFE" stroke-width="1.32796" stroke-linecap="round" stroke-linejoin="round"/>
<path d="M337.408 155.89C337.408 156.863 337.036 157.793 336.337 158.501C335.797 159.041 335.062 159.413 334.185 159.528L332.008 159.767C330.821 159.9 329.803 158.891 329.945 157.687L330.184 155.509C330.396 153.57 332.016 152.331 333.734 152.295C333.911 152.286 334.097 152.295 334.265 152.304C335.018 152.401 335.752 152.747 336.354 153.358C336.948 153.951 337.284 154.641 337.381 155.385C337.39 155.553 337.408 155.721 337.408 155.89Z" stroke="#FEFEFE" stroke-width="1.32796" stroke-linecap="round" stroke-linejoin="round"/>
<path d="M340.783 153.101C340.783 150.79 338.906 148.913 336.596 148.913" stroke="#FEFEFE" stroke-width="1.32796" stroke-linecap="round" stroke-linejoin="round"/>
<path d="M345.989 151.56L346.644 152.207C347.963 153.526 347.963 154.827 346.644 156.146L344.023 158.767C342.722 160.068 341.403 160.068 340.102 158.767" stroke="#FEFEFE" stroke-width="1.32796" stroke-linecap="round"/>
<path d="M330.929 149.595C329.628 148.276 329.628 146.974 330.929 145.655L333.55 143.035C334.851 141.733 336.17 141.733 337.472 143.035L338.127 143.69" stroke="#FEFEFE" stroke-width="1.32796" stroke-linecap="round"/>
<path d="M338.137 143.699L334.861 146.974" stroke="#FEFEFE" stroke-width="1.32796" stroke-linecap="round"/>
<path d="M345.988 151.56L343.367 154.172" stroke="#FEFEFE" stroke-width="1.32796" stroke-linecap="round"/>
</g>
<path d="M320.477 175.717H322.661C323.573 175.717 324.251 176.019 324.694 176.623C325.143 177.227 325.368 178.095 325.368 179.229C325.368 180.37 325.143 181.242 324.694 181.846C324.251 182.443 323.573 182.742 322.661 182.742H320.477V175.717ZM322.57 181.685C323.053 181.685 323.409 181.527 323.637 181.212C323.872 180.897 323.989 180.437 323.989 179.833V178.615C323.989 178.018 323.872 177.562 323.637 177.247C323.409 176.931 323.053 176.774 322.57 176.774H321.775V181.685H322.57ZM328.917 182.863C328.501 182.863 328.132 182.799 327.81 182.671C327.488 182.544 327.216 182.363 326.995 182.128C326.78 181.893 326.616 181.611 326.502 181.283C326.388 180.947 326.331 180.571 326.331 180.155C326.331 179.733 326.388 179.354 326.502 179.018C326.622 178.683 326.79 178.397 327.005 178.163C327.22 177.928 327.478 177.747 327.78 177.619C328.088 177.492 328.434 177.428 328.816 177.428C329.192 177.428 329.531 177.492 329.833 177.619C330.135 177.74 330.39 177.914 330.598 178.142C330.813 178.371 330.977 178.646 331.091 178.968C331.205 179.29 331.262 179.645 331.262 180.035V180.457H327.619V180.588C327.619 180.964 327.736 181.269 327.971 181.504C328.206 181.732 328.535 181.846 328.957 181.846C329.279 181.846 329.555 181.782 329.783 181.655C330.017 181.521 330.212 181.346 330.366 181.132L331.101 181.866C330.913 182.141 330.638 182.376 330.276 182.571C329.92 182.765 329.467 182.863 328.917 182.863ZM328.827 178.374C328.464 178.374 328.172 178.488 327.951 178.716C327.729 178.944 327.619 179.246 327.619 179.622V179.692H329.974V179.602C329.974 179.226 329.87 178.927 329.662 178.706C329.461 178.485 329.182 178.374 328.827 178.374ZM334.811 182.863C334.241 182.863 333.747 182.775 333.331 182.601C332.915 182.42 332.59 182.178 332.355 181.876L333.11 181.192C333.325 181.427 333.57 181.608 333.845 181.735C334.127 181.863 334.452 181.927 334.821 181.927C335.143 181.927 335.401 181.873 335.596 181.766C335.791 181.658 335.888 181.494 335.888 181.273C335.888 181.085 335.821 180.957 335.687 180.89C335.559 180.823 335.388 180.773 335.173 180.739L334.338 180.608C334.123 180.575 333.912 180.528 333.704 180.467C333.503 180.4 333.321 180.31 333.16 180.196C333.006 180.082 332.882 179.937 332.788 179.763C332.694 179.582 332.647 179.364 332.647 179.109C332.647 178.565 332.848 178.149 333.251 177.861C333.66 177.572 334.221 177.428 334.932 177.428C335.435 177.428 335.861 177.498 336.21 177.639C336.566 177.78 336.857 177.978 337.086 178.233L336.411 178.978C336.264 178.817 336.066 178.676 335.817 178.555C335.576 178.428 335.267 178.364 334.891 178.364C334.234 178.364 333.905 178.569 333.905 178.978C333.905 179.166 333.972 179.297 334.106 179.37C334.241 179.437 334.415 179.488 334.63 179.521L335.455 179.652C335.677 179.686 335.888 179.736 336.089 179.803C336.297 179.863 336.478 179.951 336.633 180.065C336.794 180.179 336.921 180.323 337.015 180.498C337.109 180.672 337.156 180.887 337.156 181.142C337.156 181.678 336.948 182.101 336.532 182.41C336.123 182.712 335.549 182.863 334.811 182.863ZM341.188 176.743C340.886 176.743 340.671 176.68 340.544 176.552C340.423 176.425 340.363 176.27 340.363 176.089V175.848C340.363 175.667 340.423 175.512 340.544 175.385C340.671 175.257 340.886 175.194 341.188 175.194C341.49 175.194 341.701 175.257 341.822 175.385C341.949 175.512 342.013 175.667 342.013 175.848V176.089C342.013 176.27 341.949 176.425 341.822 176.552C341.701 176.68 341.49 176.743 341.188 176.743ZM338.833 181.725H340.544V178.565H338.833V177.549H341.832V181.725H343.422V182.742H338.833V181.725ZM349.678 183.285C349.678 183.829 349.45 184.228 348.994 184.483C348.545 184.745 347.84 184.876 346.881 184.876C346.411 184.876 346.018 184.845 345.703 184.785C345.388 184.731 345.133 184.651 344.938 184.543C344.75 184.436 344.616 184.305 344.535 184.151C344.455 184.003 344.415 183.836 344.415 183.648C344.415 183.359 344.499 183.138 344.666 182.983C344.834 182.829 345.069 182.715 345.371 182.641V182.561C345.17 182.494 345.009 182.4 344.888 182.279C344.774 182.158 344.717 181.99 344.717 181.776C344.717 181.521 344.801 181.33 344.968 181.202C345.143 181.075 345.371 180.977 345.653 180.91V180.86C345.344 180.712 345.102 180.504 344.928 180.236C344.754 179.967 344.666 179.642 344.666 179.26C344.666 178.971 344.717 178.716 344.817 178.495C344.925 178.267 345.072 178.075 345.26 177.921C345.455 177.76 345.686 177.639 345.955 177.559C346.223 177.471 346.522 177.428 346.85 177.428C347.199 177.428 347.515 177.475 347.796 177.569V177.347C347.796 177.146 347.86 176.978 347.988 176.844C348.122 176.71 348.306 176.643 348.541 176.643H349.477V177.609H348.249V177.78C348.504 177.934 348.699 178.136 348.833 178.384C348.974 178.626 349.044 178.917 349.044 179.26C349.044 179.548 348.991 179.806 348.883 180.035C348.783 180.263 348.635 180.454 348.441 180.608C348.253 180.763 348.021 180.883 347.746 180.971C347.478 181.051 347.179 181.091 346.85 181.091C346.716 181.091 346.585 181.088 346.458 181.081C346.337 181.068 346.22 181.044 346.106 181.011C346.012 181.044 345.921 181.098 345.834 181.172C345.747 181.246 345.703 181.343 345.703 181.464C345.703 181.625 345.78 181.725 345.934 181.766C346.089 181.799 346.273 181.816 346.488 181.816H347.666C348.028 181.816 348.337 181.853 348.591 181.927C348.846 181.994 349.054 182.094 349.215 182.229C349.377 182.356 349.494 182.51 349.568 182.692C349.642 182.873 349.678 183.071 349.678 183.285ZM348.471 183.376C348.471 183.222 348.407 183.098 348.279 183.004C348.159 182.916 347.931 182.873 347.595 182.873H345.804C345.602 182.987 345.502 183.155 345.502 183.376C345.502 183.557 345.575 183.708 345.723 183.829C345.877 183.95 346.136 184.01 346.498 184.01H347.333C348.092 184.01 348.471 183.799 348.471 183.376ZM346.85 180.246C347.179 180.246 347.421 180.169 347.575 180.014C347.729 179.853 347.806 179.645 347.806 179.39V179.129C347.806 178.874 347.729 178.669 347.575 178.515C347.421 178.354 347.179 178.273 346.85 178.273C346.528 178.273 346.29 178.354 346.136 178.515C345.981 178.669 345.904 178.874 345.904 179.129V179.39C345.904 179.645 345.981 179.853 346.136 180.014C346.29 180.169 346.528 180.246 346.85 180.246ZM350.671 182.742V177.549H351.959V178.465H352.009C352.124 178.183 352.298 177.941 352.533 177.74C352.774 177.532 353.107 177.428 353.529 177.428C354.039 177.428 354.452 177.599 354.767 177.941C355.089 178.277 355.25 178.76 355.25 179.39V182.742H353.962V179.572C353.962 178.82 353.637 178.444 352.986 178.444C352.852 178.444 352.724 178.461 352.603 178.495C352.483 178.528 352.372 178.582 352.271 178.656C352.177 178.723 352.1 178.807 352.04 178.907C351.986 179.008 351.959 179.129 351.959 179.27V182.742H350.671Z" fill="white"/>
<rect x="-0.0425363" y="0.0425363" width="3.65812" height="3.74319" rx="0.241039" transform="matrix(-1 0 0 1 605.979 152.191)" fill="#011320" stroke="#7E1F86" stroke-width="0.0850726"/>
<rect x="587.838" y="128" width="32.7097" height="32.7097" rx="16.3548" fill="#7E1F86"/>
<path d="M595.711 143.619V147.855C595.711 152.092 597.409 153.79 601.646 153.79H606.732C610.968 153.79 612.666 152.092 612.666 147.855V143.619" stroke="#F5F5F5" stroke-width="1.6119" stroke-linecap="round" stroke-linejoin="round"/>
<path d="M604.193 144.355C605.92 144.355 607.194 142.949 607.024 141.222L606.401 134.919H601.995L601.363 141.222C601.193 142.949 602.467 144.355 604.193 144.355Z" stroke="#F5F5F5" stroke-width="1.6119" stroke-linecap="round" stroke-linejoin="round"/>
<path d="M610.149 144.355C612.055 144.355 613.451 142.807 613.263 140.911L612.998 138.316C612.659 135.863 611.715 134.919 609.243 134.919H606.365L607.026 141.534C607.186 143.09 608.592 144.355 610.149 144.355Z" stroke="#F5F5F5" stroke-width="1.6119" stroke-linecap="round" stroke-linejoin="round"/>
<path d="M598.193 144.355C599.75 144.355 601.156 143.09 601.307 141.534L601.515 139.448L601.967 134.919H599.09C596.618 134.919 595.674 135.863 595.334 138.316L595.08 140.911C594.891 142.807 596.287 144.355 598.193 144.355Z" stroke="#F5F5F5" stroke-width="1.6119" stroke-linecap="round" stroke-linejoin="round"/>
<path d="M604.195 149.073C602.619 149.073 601.836 149.856 601.836 151.432V153.79H606.554V151.432C606.554 149.856 605.771 149.073 604.195 149.073Z" stroke="#F5F5F5" stroke-width="1.6119" stroke-linecap="round" stroke-linejoin="round"/>
<path d="M574.428 169.717H576.612C577.525 169.717 578.202 170.019 578.645 170.623C579.095 171.227 579.319 172.095 579.319 173.229C579.319 174.37 579.095 175.242 578.645 175.846C578.202 176.443 577.525 176.742 576.612 176.742H574.428V169.717ZM576.521 175.685C577.005 175.685 577.36 175.527 577.588 175.212C577.823 174.897 577.941 174.437 577.941 173.833V172.615C577.941 172.018 577.823 171.562 577.588 171.247C577.36 170.931 577.005 170.774 576.521 170.774H575.726V175.685H576.521ZM582.868 176.863C582.452 176.863 582.083 176.799 581.761 176.671C581.439 176.544 581.167 176.363 580.946 176.128C580.731 175.893 580.567 175.611 580.453 175.283C580.339 174.947 580.282 174.571 580.282 174.155C580.282 173.733 580.339 173.354 580.453 173.018C580.574 172.683 580.741 172.397 580.956 172.163C581.171 171.928 581.429 171.747 581.731 171.619C582.04 171.492 582.385 171.428 582.768 171.428C583.143 171.428 583.482 171.492 583.784 171.619C584.086 171.74 584.341 171.914 584.549 172.142C584.764 172.371 584.928 172.646 585.042 172.968C585.156 173.29 585.213 173.645 585.213 174.035V174.457H581.57V174.588C581.57 174.964 581.687 175.269 581.922 175.504C582.157 175.732 582.486 175.846 582.909 175.846C583.231 175.846 583.506 175.782 583.734 175.655C583.969 175.521 584.163 175.346 584.318 175.132L585.052 175.866C584.864 176.141 584.589 176.376 584.227 176.571C583.871 176.765 583.418 176.863 582.868 176.863ZM582.778 172.374C582.415 172.374 582.123 172.488 581.902 172.716C581.681 172.944 581.57 173.246 581.57 173.622V173.692H583.925V173.602C583.925 173.226 583.821 172.927 583.613 172.706C583.412 172.485 583.133 172.374 582.778 172.374ZM586.457 171.549H587.746V172.465H587.816C587.957 172.149 588.148 171.898 588.39 171.71C588.638 171.522 588.963 171.428 589.366 171.428C589.661 171.428 589.93 171.485 590.171 171.599C590.419 171.706 590.631 171.874 590.805 172.102C590.98 172.324 591.114 172.605 591.208 172.948C591.302 173.29 591.349 173.689 591.349 174.145C591.349 174.602 591.302 175.001 591.208 175.343C591.114 175.685 590.98 175.97 590.805 176.198C590.631 176.42 590.419 176.588 590.171 176.702C589.93 176.809 589.661 176.863 589.366 176.863C588.963 176.863 588.638 176.769 588.39 176.581C588.148 176.393 587.957 176.141 587.816 175.826H587.746V178.755H586.457V171.549ZM588.823 175.836C589.198 175.836 589.487 175.722 589.688 175.494C589.896 175.266 590 174.954 590 174.558V173.733C590 173.337 589.896 173.025 589.688 172.797C589.487 172.569 589.198 172.454 588.823 172.454C588.527 172.454 588.272 172.528 588.058 172.676C587.85 172.817 587.746 173.035 587.746 173.33V174.961C587.746 175.256 587.85 175.477 588.058 175.625C588.272 175.766 588.527 175.836 588.823 175.836ZM592.522 175.725H594.173V170.311H592.522V169.294H595.461V175.725H597.122V176.742H592.522V175.725ZM600.852 176.863C600.456 176.863 600.1 176.799 599.785 176.671C599.476 176.544 599.211 176.363 598.99 176.128C598.775 175.893 598.607 175.608 598.487 175.273C598.373 174.937 598.316 174.561 598.316 174.145C598.316 173.729 598.373 173.354 598.487 173.018C598.607 172.683 598.775 172.397 598.99 172.163C599.211 171.928 599.476 171.747 599.785 171.619C600.1 171.492 600.456 171.428 600.852 171.428C601.241 171.428 601.593 171.492 601.909 171.619C602.224 171.747 602.489 171.928 602.704 172.163C602.925 172.397 603.093 172.683 603.207 173.018C603.328 173.354 603.388 173.729 603.388 174.145C603.388 174.561 603.328 174.937 603.207 175.273C603.093 175.608 602.925 175.893 602.704 176.128C602.489 176.363 602.224 176.544 601.909 176.671C601.593 176.799 601.241 176.863 600.852 176.863ZM600.852 175.876C601.221 175.876 601.513 175.766 601.727 175.544C601.942 175.316 602.05 174.984 602.05 174.548V173.743C602.05 173.307 601.942 172.978 601.727 172.756C601.513 172.528 601.221 172.414 600.852 172.414C600.483 172.414 600.191 172.528 599.976 172.756C599.762 172.978 599.654 173.307 599.654 173.743V174.548C599.654 174.984 599.762 175.316 599.976 175.544C600.191 175.766 600.483 175.876 600.852 175.876ZM608.306 171.549H609.614L607.128 177.668C606.987 178.023 606.799 178.292 606.565 178.473C606.33 178.661 605.998 178.755 605.568 178.755H604.622V177.738H605.86L606.253 176.692L604.159 171.549H605.528L606.323 173.723L606.877 175.373H606.947L607.501 173.723L608.306 171.549ZM610.274 176.742V171.549H611.341V172.263H611.402C611.482 172.035 611.596 171.841 611.744 171.679C611.898 171.512 612.113 171.428 612.388 171.428C612.65 171.428 612.858 171.505 613.012 171.659C613.166 171.807 613.267 172.018 613.314 172.293H613.364C613.451 172.059 613.579 171.857 613.747 171.69C613.921 171.515 614.166 171.428 614.481 171.428C614.864 171.428 615.139 171.565 615.307 171.841C615.474 172.116 615.558 172.522 615.558 173.058V176.742H614.502V173.209C614.502 172.907 614.458 172.696 614.371 172.575C614.29 172.454 614.166 172.394 613.998 172.394C613.844 172.394 613.713 172.444 613.606 172.545C613.505 172.646 613.455 172.8 613.455 173.008V176.742H612.388V173.209C612.388 172.907 612.348 172.696 612.267 172.575C612.187 172.454 612.063 172.394 611.895 172.394C611.734 172.394 611.6 172.444 611.492 172.545C611.392 172.646 611.341 172.8 611.341 173.008V176.742H610.274ZM619.077 176.863C618.661 176.863 618.292 176.799 617.97 176.671C617.648 176.544 617.376 176.363 617.155 176.128C616.94 175.893 616.776 175.611 616.661 175.283C616.547 174.947 616.49 174.571 616.49 174.155C616.49 173.733 616.547 173.354 616.661 173.018C616.782 172.683 616.95 172.397 617.165 172.163C617.379 171.928 617.638 171.747 617.94 171.619C618.248 171.492 618.594 171.428 618.976 171.428C619.352 171.428 619.691 171.492 619.993 171.619C620.295 171.74 620.55 171.914 620.758 172.142C620.972 172.371 621.137 172.646 621.251 172.968C621.365 173.29 621.422 173.645 621.422 174.035V174.457H617.779V174.588C617.779 174.964 617.896 175.269 618.131 175.504C618.366 175.732 618.694 175.846 619.117 175.846C619.439 175.846 619.714 175.782 619.942 175.655C620.177 175.521 620.372 175.346 620.526 175.132L621.261 175.866C621.073 176.141 620.798 176.376 620.436 176.571C620.08 176.765 619.627 176.863 619.077 176.863ZM618.986 172.374C618.624 172.374 618.332 172.488 618.111 172.716C617.889 172.944 617.779 173.246 617.779 173.622V173.692H620.134V173.602C620.134 173.226 620.03 172.927 619.822 172.706C619.62 172.485 619.342 172.374 618.986 172.374ZM622.726 176.742V171.549H624.015V172.465H624.065C624.179 172.183 624.354 171.941 624.588 171.74C624.83 171.532 625.162 171.428 625.585 171.428C626.095 171.428 626.507 171.599 626.823 171.941C627.145 172.277 627.306 172.76 627.306 173.39V176.742H626.018V173.572C626.018 172.82 625.692 172.444 625.041 172.444C624.907 172.444 624.78 172.461 624.659 172.495C624.538 172.528 624.427 172.582 624.327 172.656C624.233 172.723 624.156 172.807 624.095 172.907C624.042 173.008 624.015 173.129 624.015 173.27V176.742H622.726ZM631.378 176.742C630.881 176.742 630.516 176.611 630.281 176.349C630.046 176.088 629.929 175.749 629.929 175.333V172.565H628.419V171.549H629.446C629.654 171.549 629.801 171.508 629.888 171.428C629.976 171.341 630.019 171.19 630.019 170.975V169.717H631.217V171.549H633.33V172.565H631.217V175.725H633.33V176.742H631.378Z" fill="white"/>
<rect x="555.942" y="282.378" width="7.73952" height="7.91812" rx="0.506045" transform="rotate(180 555.942 282.378)" fill="#011320" stroke="#FF495C" stroke-width="0.178604"/>
<rect x="536.033" y="252" width="32.7097" height="32.7097" rx="16.3548" fill="#FF495C"/>
<path d="M550.502 273.025H546.925C543.746 273.025 542.953 272.233 542.953 269.053V263.392C542.953 260.212 543.746 259.419 546.925 259.419H556.861C560.041 259.419 560.833 260.212 560.833 263.392" stroke="#F5F5F5" stroke-width="1.53327" stroke-linecap="round" stroke-linejoin="round"/>
<path d="M550.502 277.29V273.025" stroke="#F5F5F5" stroke-width="1.53327" stroke-linecap="round" stroke-linejoin="round"/>
<path d="M542.953 269.251H550.502" stroke="#F5F5F5" stroke-width="1.53327" stroke-linecap="round" stroke-linejoin="round"/>
<path d="M547.426 277.29H550.502" stroke="#F5F5F5" stroke-width="1.53327" stroke-linecap="round" stroke-linejoin="round"/>
<path d="M561.824 269.11V274.497C561.824 276.734 561.267 277.29 559.031 277.29H555.682C553.445 277.29 552.889 276.734 552.889 274.497V269.11C552.889 266.873 553.445 266.317 555.682 266.317H559.031C561.267 266.317 561.824 266.873 561.824 269.11Z" stroke="#F5F5F5" stroke-width="1.53327" stroke-linecap="round" stroke-linejoin="round"/>
<path d="M557.338 274.252H557.346" stroke="#F5F5F5" stroke-width="2.04435" stroke-linecap="round" stroke-linejoin="round"/>
<path d="M533.826 300.863C533.222 300.863 532.705 300.759 532.276 300.551C531.853 300.343 531.507 300.068 531.239 299.725L532.034 298.9C532.296 299.202 532.578 299.427 532.879 299.574C533.188 299.715 533.517 299.786 533.866 299.786C534.268 299.786 534.577 299.695 534.792 299.514C535.006 299.333 535.114 299.071 535.114 298.729C535.114 298.447 535.033 298.236 534.872 298.095C534.711 297.947 534.439 297.843 534.057 297.783L533.312 297.662C532.661 297.548 532.198 297.313 531.923 296.958C531.648 296.595 531.511 296.169 531.511 295.679C531.511 295.009 531.729 294.495 532.165 294.14C532.601 293.777 533.205 293.596 533.977 293.596C534.527 293.596 535 293.683 535.396 293.858C535.798 294.032 536.12 294.27 536.362 294.572L535.587 295.398C535.399 295.176 535.174 295.002 534.913 294.874C534.651 294.74 534.342 294.673 533.987 294.673C533.222 294.673 532.839 294.988 532.839 295.619C532.839 295.887 532.92 296.092 533.081 296.233C533.242 296.374 533.517 296.478 533.906 296.545L534.641 296.676C535.251 296.79 535.704 297.015 535.999 297.35C536.295 297.686 536.442 298.115 536.442 298.638C536.442 298.967 536.385 299.269 536.271 299.544C536.157 299.813 535.989 300.047 535.768 300.249C535.547 300.443 535.271 300.594 534.943 300.702C534.621 300.809 534.248 300.863 533.826 300.863ZM540.917 299.826H540.867C540.753 300.108 540.575 300.353 540.333 300.561C540.099 300.762 539.77 300.863 539.347 300.863C538.837 300.863 538.421 300.695 538.099 300.359C537.784 300.017 537.626 299.531 537.626 298.9V295.549H538.914V298.719C538.914 299.47 539.24 299.846 539.891 299.846C540.018 299.846 540.142 299.829 540.263 299.796C540.39 299.762 540.501 299.712 540.595 299.645C540.696 299.571 540.773 299.484 540.827 299.383C540.887 299.283 540.917 299.162 540.917 299.021V295.549H542.205V300.742H540.917V299.826ZM543.651 295.549H544.939V296.465H545.009C545.15 296.149 545.342 295.898 545.583 295.71C545.831 295.522 546.157 295.428 546.559 295.428C546.855 295.428 547.123 295.485 547.365 295.599C547.613 295.706 547.824 295.874 547.999 296.102C548.173 296.324 548.307 296.605 548.401 296.948C548.495 297.29 548.542 297.689 548.542 298.145C548.542 298.602 548.495 299.001 548.401 299.343C548.307 299.685 548.173 299.97 547.999 300.198C547.824 300.42 547.613 300.588 547.365 300.702C547.123 300.809 546.855 300.863 546.559 300.863C546.157 300.863 545.831 300.769 545.583 300.581C545.342 300.393 545.15 300.141 545.009 299.826H544.939V302.755H543.651V295.549ZM546.016 299.836C546.392 299.836 546.68 299.722 546.881 299.494C547.089 299.266 547.193 298.954 547.193 298.558V297.733C547.193 297.337 547.089 297.025 546.881 296.797C546.68 296.569 546.392 296.454 546.016 296.454C545.721 296.454 545.466 296.528 545.251 296.676C545.043 296.817 544.939 297.035 544.939 297.33V298.961C544.939 299.256 545.043 299.477 545.251 299.625C545.466 299.766 545.721 299.836 546.016 299.836ZM549.686 295.549H550.974V296.465H551.044C551.185 296.149 551.376 295.898 551.618 295.71C551.866 295.522 552.192 295.428 552.594 295.428C552.889 295.428 553.158 295.485 553.399 295.599C553.648 295.706 553.859 295.874 554.033 296.102C554.208 296.324 554.342 296.605 554.436 296.948C554.53 297.29 554.577 297.689 554.577 298.145C554.577 298.602 554.53 299.001 554.436 299.343C554.342 299.685 554.208 299.97 554.033 300.198C553.859 300.42 553.648 300.588 553.399 300.702C553.158 300.809 552.889 300.863 552.594 300.863C552.192 300.863 551.866 300.769 551.618 300.581C551.376 300.393 551.185 300.141 551.044 299.826H550.974V302.755H549.686V295.549ZM552.051 299.836C552.426 299.836 552.715 299.722 552.916 299.494C553.124 299.266 553.228 298.954 553.228 298.558V297.733C553.228 297.337 553.124 297.025 552.916 296.797C552.715 296.569 552.426 296.454 552.051 296.454C551.755 296.454 551.5 296.528 551.286 296.676C551.078 296.817 550.974 297.035 550.974 297.33V298.961C550.974 299.256 551.078 299.477 551.286 299.625C551.5 299.766 551.755 299.836 552.051 299.836ZM558.045 300.863C557.649 300.863 557.294 300.799 556.978 300.671C556.67 300.544 556.405 300.363 556.183 300.128C555.969 299.893 555.801 299.608 555.68 299.273C555.566 298.937 555.509 298.561 555.509 298.145C555.509 297.729 555.566 297.354 555.68 297.018C555.801 296.683 555.969 296.397 556.183 296.163C556.405 295.928 556.67 295.747 556.978 295.619C557.294 295.492 557.649 295.428 558.045 295.428C558.434 295.428 558.787 295.492 559.102 295.619C559.417 295.747 559.682 295.928 559.897 296.163C560.118 296.397 560.286 296.683 560.4 297.018C560.521 297.354 560.581 297.729 560.581 298.145C560.581 298.561 560.521 298.937 560.4 299.273C560.286 299.608 560.118 299.893 559.897 300.128C559.682 300.363 559.417 300.544 559.102 300.671C558.787 300.799 558.434 300.863 558.045 300.863ZM558.045 299.876C558.414 299.876 558.706 299.766 558.921 299.544C559.136 299.316 559.243 298.984 559.243 298.548V297.743C559.243 297.307 559.136 296.978 558.921 296.756C558.706 296.528 558.414 296.414 558.045 296.414C557.676 296.414 557.384 296.528 557.17 296.756C556.955 296.978 556.848 297.307 556.848 297.743V298.548C556.848 298.984 556.955 299.316 557.17 299.544C557.384 299.766 557.676 299.876 558.045 299.876ZM561.815 299.725H563.104V296.565H561.815V295.549H564.392V296.968H564.472C564.519 296.787 564.583 296.612 564.664 296.444C564.751 296.27 564.858 296.119 564.986 295.991C565.12 295.857 565.281 295.75 565.469 295.669C565.657 295.589 565.882 295.549 566.143 295.549H566.707V296.756H565.64C565.251 296.756 564.946 296.87 564.724 297.099C564.503 297.327 564.392 297.619 564.392 297.974V299.725H566.194V300.742H561.815V299.725ZM570.467 300.742C569.97 300.742 569.605 300.611 569.37 300.349C569.135 300.088 569.018 299.749 569.018 299.333V296.565H567.508V295.549H568.535C568.743 295.549 568.89 295.508 568.977 295.428C569.065 295.341 569.108 295.19 569.108 294.975V293.717H570.306V295.549H572.42V296.565H570.306V299.725H572.42V300.742H570.467Z" fill="white"/>
<defs>
<radialGradient id="paint0_radial_241_2671" cx="0" cy="0" r="1" gradientUnits="userSpaceOnUse" gradientTransform="translate(437 23) rotate(79.176) scale(404.7 392.797)">
<stop stop-color="#B700F8"/>
<stop offset="0.378125" stop-color="#1136FA"/>
<stop offset="0.732292" stop-color="#FA6161" stop-opacity="0.74"/>
<stop offset="0.857292" stop-color="#CE1F6F" stop-opacity="0.65"/>
</radialGradient>
<clipPath id="clip0_241_2671">
<rect width="21.2473" height="21.2473" fill="white" transform="translate(328.176 140.29)"/>
</clipPath>
</defs>
</svg>
