<svg width="149" height="192" viewBox="0 0 149 192" fill="none" xmlns="http://www.w3.org/2000/svg">
<path fill-rule="evenodd" clip-rule="evenodd" d="M1.32565 127.786C1.32565 127.786 72.3006 26.4975 87.0879 8.01431C101.875 -10.4689 122.576 8.0142 122.576 18.3649V118.173C127.03 124.63 126.272 127.786 138.102 127.786C149.931 127.786 155.106 147.746 138.102 147.746C124.958 150.212 120.539 154.101 122.576 169.187C122.576 169.187 127.012 164.011 122.576 180.277C118.14 196.542 98.1778 193.585 98.1778 180.277V164.751C93.1415 151.957 87.4341 147.361 67.8653 147.746H13.1549C4.28344 147.746 -3.10966 138.874 1.32565 127.786ZM52.1016 102.648C52.1016 132.961 98.1778 135.918 98.1778 102.648C98.1778 69.3784 52.1016 72.3357 52.1016 102.648Z" fill="#FCFCFC"/>
</svg>
