<svg width="32" height="32" viewBox="0 0 32 32" fill="none" xmlns="http://www.w3.org/2000/svg">
<rect width="32" height="32" rx="16" fill="#2F80ED"/>
<g clip-path="url(#clip0_660_245)">
<path d="M24.2076 9.28941C22.922 12.4952 19.6995 16.8531 17.0029 19.0154L15.3583 20.3345C15.1495 20.4847 14.9408 20.6183 14.7071 20.7101C14.7071 20.5599 14.6987 20.3929 14.6737 20.2343C14.5818 19.533 14.2646 18.8818 13.7053 18.3225C13.1376 17.7548 12.4446 17.4208 11.735 17.329C11.568 17.3206 11.4011 17.304 11.2341 17.3206C11.3259 17.0618 11.4679 16.8197 11.6432 16.6194L12.9455 14.9747C15.0994 12.2782 19.4741 9.03895 22.6715 7.76163C23.1641 7.57797 23.6399 7.71154 23.9405 8.02044C24.2577 8.32933 24.408 8.80519 24.2076 9.28941Z" stroke="#FEFEFE" stroke-width="1.25227" stroke-linecap="round" stroke-linejoin="round"/>
<path d="M14.7077 20.7101C14.7077 21.6284 14.3571 22.505 13.6975 23.1729C13.1883 23.6821 12.4954 24.0328 11.6689 24.1413L9.61513 24.3667C8.49643 24.4919 7.53635 23.5402 7.66993 22.4048L7.89534 20.3511C8.0957 18.5228 9.62347 17.354 11.2431 17.3206C11.4101 17.3122 11.5854 17.3206 11.744 17.3289C12.4536 17.4208 13.1465 17.7464 13.7142 18.3224C14.2736 18.8818 14.5908 19.5329 14.6827 20.2342C14.691 20.3928 14.7077 20.5515 14.7077 20.7101Z" stroke="#FEFEFE" stroke-width="1.25227" stroke-linecap="round" stroke-linejoin="round"/>
<path d="M17.888 18.0803C17.888 15.9013 16.1182 14.1314 13.9392 14.1314" stroke="#FEFEFE" stroke-width="1.25227" stroke-linecap="round" stroke-linejoin="round"/>
<path d="M22.7969 16.6276L23.4147 17.237C24.6586 18.481 24.6586 19.7082 23.4147 20.9521L20.9436 23.4233C19.7163 24.6505 18.4724 24.6505 17.2452 23.4233" stroke="#FEFEFE" stroke-width="1.25227" stroke-linecap="round"/>
<path d="M8.59663 14.7743C7.3694 13.5304 7.3694 12.3032 8.59663 11.0592L11.0678 8.58808C12.295 7.36085 13.5389 7.36085 14.7662 8.58808L15.3839 9.20586" stroke="#FEFEFE" stroke-width="1.25227" stroke-linecap="round"/>
<path d="M15.3919 9.21425L12.3029 12.3032" stroke="#FEFEFE" stroke-width="1.25227" stroke-linecap="round"/>
<path d="M22.7973 16.6276L20.3261 19.0904" stroke="#FEFEFE" stroke-width="1.25227" stroke-linecap="round"/>
</g>
<defs>
<clipPath id="clip0_660_245">
<rect width="20.0364" height="20.0364" fill="white" transform="translate(6 6)"/>
</clipPath>
</defs>
</svg>
