<svg width="54" height="52" viewBox="0 0 54 52" fill="none" xmlns="http://www.w3.org/2000/svg">
<rect x="0.0188599" width="53.9623" height="52" rx="26" fill="#7209B7"/>
<g clip-path="url(#clip0_5_509)">
<path d="M41.6942 15.5452C39.5268 20.9496 34.0942 28.2963 29.5483 31.9415L26.7757 34.1652C26.4239 34.4185 26.072 34.6437 25.6779 34.7985C25.6779 34.5452 25.6639 34.2637 25.6216 33.9963C25.4668 32.8141 24.932 31.7163 23.989 30.7733C23.032 29.8163 21.8639 29.2533 20.6676 29.0985C20.3861 29.0844 20.1046 29.0563 19.8231 29.0844C19.9779 28.6482 20.2172 28.24 20.5128 27.9022L22.7083 25.1296C26.3394 20.5837 33.7142 15.123 39.1046 12.9696C39.935 12.66 40.7372 12.8852 41.2439 13.4059C41.7787 13.9267 42.032 14.7289 41.6942 15.5452Z" stroke="#FEFEFE" stroke-width="2.11111" stroke-linecap="round" stroke-linejoin="round"/>
<path d="M25.6776 34.7985C25.6776 36.3467 25.0865 37.8244 23.9746 38.9504C23.1161 39.8089 21.948 40.4 20.5546 40.583L17.0924 40.963C15.2065 41.1741 13.588 39.5696 13.8132 37.6556L14.1932 34.1933C14.5309 31.1111 17.1065 29.1407 19.8369 29.0844C20.1183 29.0704 20.4139 29.0844 20.6813 29.0985C21.8776 29.2533 23.0458 29.8022 24.0028 30.7733C24.9458 31.7163 25.4806 32.8141 25.6354 33.9963C25.6495 34.2637 25.6776 34.5311 25.6776 34.7985Z" stroke="#FEFEFE" stroke-width="2.11111" stroke-linecap="round" stroke-linejoin="round"/>
<path d="M31.0405 30.3652C31.0405 26.6918 28.0568 23.7081 24.3834 23.7081" stroke="#FEFEFE" stroke-width="2.11111" stroke-linecap="round" stroke-linejoin="round"/>
<path d="M39.3174 27.9163L40.3588 28.9437C42.4559 31.0407 42.4559 33.1096 40.3588 35.2066L36.1929 39.3726C34.124 41.4414 32.027 41.4414 29.9581 39.3726" stroke="#FEFEFE" stroke-width="2.11111" stroke-linecap="round"/>
<path d="M15.3768 24.7918C13.3079 22.6948 13.3079 20.6259 15.3768 18.5289L19.5427 14.3629C21.6116 12.2941 23.7087 12.2941 25.7775 14.3629L26.819 15.4044" stroke="#FEFEFE" stroke-width="2.11111" stroke-linecap="round"/>
<path d="M26.8338 15.4186L21.6264 20.626" stroke="#FEFEFE" stroke-width="2.11111" stroke-linecap="round"/>
<path d="M39.3166 27.9163L35.1507 32.0681" stroke="#FEFEFE" stroke-width="2.11111" stroke-linecap="round"/>
</g>
<defs>
<clipPath id="clip0_5_509">
<rect width="33.7778" height="33.7778" fill="white" transform="translate(10.9993 10)"/>
</clipPath>
</defs>
</svg>
