<svg width="53" height="52" viewBox="0 0 53 52" fill="none" xmlns="http://www.w3.org/2000/svg">
<rect x="0.5" width="52" height="52" rx="26" fill="#CE1F6F"/>
<path d="M37 32V17.75C37 16.1 35.65 14.75 34 14.75H27.25" stroke="#F5F5F5" stroke-width="2.5" stroke-linecap="round" stroke-linejoin="round"/>
<path d="M31.0013 11L26.5013 14.75L31.0013 18.5" stroke="#F5F5F5" stroke-width="2.5" stroke-linecap="round" stroke-linejoin="round"/>
<path d="M16 21.5V32" stroke="#F5F5F5" stroke-width="2.5" stroke-linecap="round" stroke-linejoin="round"/>
<path d="M16.3763 20.75C19.0687 20.75 21.2513 18.5674 21.2513 15.875C21.2513 13.1826 19.0687 11 16.3763 11C13.6839 11 11.5013 13.1826 11.5013 15.875C11.5013 18.5674 13.6839 20.75 16.3763 20.75Z" stroke="#F5F5F5" stroke-width="2.5" stroke-linecap="round" stroke-linejoin="round"/>
<path d="M16.0013 41C18.4866 41 20.5013 38.9853 20.5013 36.5C20.5013 34.0147 18.4866 32 16.0013 32C13.516 32 11.5013 34.0147 11.5013 36.5C11.5013 38.9853 13.516 41 16.0013 41Z" stroke="#F5F5F5" stroke-width="2.5" stroke-linecap="round" stroke-linejoin="round"/>
<path d="M37.0006 41C39.4859 41 41.5006 38.9853 41.5006 36.5C41.5006 34.0147 39.4859 32 37.0006 32C34.5154 32 32.5006 34.0147 32.5006 36.5C32.5006 38.9853 34.5154 41 37.0006 41Z" stroke="#F5F5F5" stroke-width="2.5" stroke-linecap="round" stroke-linejoin="round"/>
</svg>
