<svg width="52" height="52" viewBox="0 0 52 52" fill="none" xmlns="http://www.w3.org/2000/svg">
<rect width="52" height="52" rx="26" fill="#FF495C"/>
<path d="M22.9993 33.425H17.3143C12.2593 33.425 10.9993 32.165 10.9993 27.11V18.11C10.9993 13.055 12.2593 11.795 17.3143 11.795H33.1093C38.1643 11.795 39.4243 13.055 39.4243 18.11" stroke="#F5F5F5" stroke-width="2.4375" stroke-linecap="round" stroke-linejoin="round"/>
<path d="M22.9995 40.205V33.425" stroke="#F5F5F5" stroke-width="2.4375" stroke-linecap="round" stroke-linejoin="round"/>
<path d="M10.9993 27.425H22.9993" stroke="#F5F5F5" stroke-width="2.4375" stroke-linecap="round" stroke-linejoin="round"/>
<path d="M18.1086 40.205H22.9986" stroke="#F5F5F5" stroke-width="2.4375" stroke-linecap="round" stroke-linejoin="round"/>
<path d="M41.0004 27.2V35.765C41.0004 39.32 40.1154 40.205 36.5604 40.205H31.2354C27.6804 40.205 26.7954 39.32 26.7954 35.765V27.2C26.7954 23.645 27.6804 22.76 31.2354 22.76H36.5604C40.1154 22.76 41.0004 23.645 41.0004 27.2Z" stroke="#F5F5F5" stroke-width="2.4375" stroke-linecap="round" stroke-linejoin="round"/>
<path d="M33.8658 35.375H33.8793" stroke="#F5F5F5" stroke-width="3.25" stroke-linecap="round" stroke-linejoin="round"/>
</svg>
