<svg width="52" height="52" viewBox="0 0 52 52" fill="none" xmlns="http://www.w3.org/2000/svg">
<rect width="52" height="52" rx="26" fill="#7E1F86"/>
<path d="M12.5144 24.83V31.565C12.5144 38.3 15.2144 41 21.9494 41H30.0344C36.7694 41 39.4694 38.3 39.4694 31.565V24.83" stroke="#F5F5F5" stroke-width="2.5625" stroke-linecap="round" stroke-linejoin="round"/>
<path d="M26.0006 26C28.7456 26 30.7706 23.765 30.5006 21.02L29.5106 11H22.5056L21.5006 21.02C21.2306 23.765 23.2556 26 26.0006 26Z" stroke="#F5F5F5" stroke-width="2.5625" stroke-linecap="round" stroke-linejoin="round"/>
<path d="M35.4659 26C38.4959 26 40.7159 23.54 40.4159 20.525L39.9959 16.4C39.4559 12.5 37.9559 11 34.0259 11H29.4509L30.5009 21.515C30.7559 23.99 32.9909 26 35.4659 26Z" stroke="#F5F5F5" stroke-width="2.5625" stroke-linecap="round" stroke-linejoin="round"/>
<path d="M16.4606 26C18.9356 26 21.1706 23.99 21.4106 21.515L21.7406 18.2L22.4606 11H17.8856C13.9556 11 12.4556 12.5 11.9156 16.4L11.5106 20.525C11.2106 23.54 13.4306 26 16.4606 26Z" stroke="#F5F5F5" stroke-width="2.5625" stroke-linecap="round" stroke-linejoin="round"/>
<path d="M26.0006 33.5C23.4956 33.5 22.2506 34.745 22.2506 37.25V41H29.7506V37.25C29.7506 34.745 28.5056 33.5 26.0006 33.5Z" stroke="#F5F5F5" stroke-width="2.5625" stroke-linecap="round" stroke-linejoin="round"/>
</svg>
