<svg width="56" height="56" viewBox="0 0 56 56" fill="none" xmlns="http://www.w3.org/2000/svg">
<rect width="56" height="56" rx="15" fill="#F72585"/>
<path d="M23 44.6667H33C41.3333 44.6667 44.6667 41.3334 44.6667 33V23C44.6667 14.6667 41.3333 11.3334 33 11.3334H23C14.6667 11.3334 11.3333 14.6667 11.3333 23V33C11.3333 41.3334 14.6667 44.6667 23 44.6667Z" stroke="#F5F5F5" stroke-width="2.50076" stroke-linecap="round" stroke-linejoin="round"/>
<path d="M22.8337 35.55C23.6337 34.6833 24.8671 34.75 25.5671 35.7L26.5671 37.0333C27.3504 38.0833 28.6504 38.0833 29.4337 37.0333L30.4171 35.7167C31.1171 34.7833 32.3504 34.7167 33.1504 35.5667C34.9004 37.4333 36.3171 36.8167 36.3171 34.2V23.15C36.3171 19.2 35.3837 18.2167 31.6837 18.2167H24.2837C20.5837 18.2167 19.6504 19.2 19.6504 23.15V34.2C19.6671 36.7833 21.1004 37.4 22.8337 35.55Z" stroke="#F5F5F5" stroke-width="2.50076" stroke-linecap="round" stroke-linejoin="round"/>
</svg>
