<svg width="56" height="56" viewBox="0 0 56 56" fill="none" xmlns="http://www.w3.org/2000/svg">
<rect width="56" height="56" rx="15" fill="#8A32C3"/>
<path d="M44.6667 32.9999V22.9999C44.6667 14.6666 41.3333 11.3333 33 11.3333H23C14.6667 11.3333 11.3333 14.6666 11.3333 22.9999V32.9999C11.3333 41.3333 14.6667 44.6666 23 44.6666H33C41.3333 44.6666 44.6667 41.3333 44.6667 32.9999Z" stroke="#F5F5F5" stroke-width="2.375" stroke-linecap="round" stroke-linejoin="round"/>
<path d="M12.1992 19.8501H43.7992" stroke="#F5F5F5" stroke-width="2.375" stroke-linecap="round" stroke-linejoin="round"/>
<path d="M22.1992 11.5167V19.6167" stroke="#F5F5F5" stroke-width="2.375" stroke-linecap="round" stroke-linejoin="round"/>
<path d="M33.8008 11.5167V18.8667" stroke="#F5F5F5" stroke-width="2.375" stroke-linecap="round" stroke-linejoin="round"/>
<path d="M24.25 32.0834V30.0834C24.25 27.5168 26.0667 26.4668 28.2833 27.7501L30.0167 28.7501L31.75 29.7501C33.9667 31.0334 33.9667 33.1334 31.75 34.4168L30.0167 35.4168L28.2833 36.4168C26.0667 37.7001 24.25 36.6501 24.25 34.0834V32.0834V32.0834Z" stroke="#F5F5F5" stroke-width="2.375" stroke-miterlimit="10" stroke-linecap="round" stroke-linejoin="round"/>
</svg>
