<svg width="56" height="56" viewBox="0 0 56 56" fill="none" xmlns="http://www.w3.org/2000/svg">
<rect width="56" height="56" rx="15" fill="#FB3640"/>
<path d="M44.6667 22.9999V32.9999C44.6667 37.1666 43.8333 40.0833 41.9667 41.9666L31.3333 31.3333L44.2167 18.45C44.5167 19.7666 44.6667 21.2666 44.6667 22.9999Z" stroke="#F5F5F5" stroke-width="2.50076" stroke-linecap="round" stroke-linejoin="round"/>
<path d="M44.2167 18.45L18.45 44.2167C13.4333 43.0667 11.3333 39.6 11.3333 33V23C11.3333 14.6667 14.6667 11.3334 23 11.3334H33C39.6 11.3334 43.0667 13.4334 44.2167 18.45Z" stroke="#F5F5F5" stroke-width="2.50076" stroke-linecap="round" stroke-linejoin="round"/>
<path d="M41.9659 41.9666C40.0826 43.8333 37.1659 44.6666 32.9992 44.6666H22.9992C21.2659 44.6666 19.7659 44.5166 18.4492 44.2166L31.3326 31.3333L41.9659 41.9666Z" stroke="#F5F5F5" stroke-width="2.50076" stroke-linecap="round" stroke-linejoin="round"/>
<path d="M18.4004 21.3001C19.5338 16.4167 26.8671 16.4167 28.0005 21.3001C28.6505 24.1667 26.8504 26.6001 25.2671 28.1001C24.1171 29.2001 22.3005 29.2001 21.1338 28.1001C19.5505 26.6001 17.7338 24.1667 18.4004 21.3001Z" stroke="#F5F5F5" stroke-width="2.50076"/>
<path d="M23.1569 22.5H23.1718" stroke="#F5F5F5" stroke-width="3.33435" stroke-linecap="round" stroke-linejoin="round"/>
</svg>
