<svg width="56" height="56" viewBox="0 0 56 56" fill="none" xmlns="http://www.w3.org/2000/svg">
<rect width="56" height="56" rx="15" fill="#35CE8D"/>
<path d="M43.7833 39.6667V16.3334C43.7833 13 42.1167 11.3334 38.7833 11.3334H32.1167C28.7833 11.3334 27.1167 13 27.1167 16.3334V39.6667C27.1167 43 28.7833 44.6667 32.1167 44.6667H38.7833C42.1167 44.6667 43.7833 43 43.7833 39.6667Z" stroke="#F5F5F5" stroke-width="2.50076" stroke-linecap="round"/>
<path d="M27.1167 18H35.45" stroke="#F5F5F5" stroke-width="2.50076" stroke-linecap="round"/>
<path d="M27.1167 38H33.7833" stroke="#F5F5F5" stroke-width="2.50076" stroke-linecap="round"/>
<path d="M27.1167 31.2501L35.45 31.3335" stroke="#F5F5F5" stroke-width="2.50076" stroke-linecap="round"/>
<path d="M27.1167 24.6666H32.1167" stroke="#F5F5F5" stroke-width="2.50076" stroke-linecap="round"/>
<path d="M17.15 11.3334C14.4333 11.3334 12.2167 13.55 12.2167 16.25V37.85C12.2167 38.6 12.5333 39.7334 12.9167 40.3834L14.2833 42.65C15.85 45.2667 18.4333 45.2667 20 42.65L21.3667 40.3834C21.75 39.7334 22.0667 38.6 22.0667 37.85V16.25C22.0667 13.55 19.85 11.3334 17.15 11.3334Z" stroke="#F5F5F5" stroke-width="2.50076" stroke-linecap="round"/>
<path d="M22.0667 19.6667H12.2167" stroke="#F5F5F5" stroke-width="2.50076" stroke-linecap="round"/>
</svg>
