<svg width="32" height="32" viewBox="0 0 32 32" fill="none" xmlns="http://www.w3.org/2000/svg">
<rect width="32" height="32" rx="16" fill="#B409B7"/>
<path d="M14.3785 20.1249H11.2202C8.41185 20.1249 7.71185 19.4249 7.71185 16.6166V11.6166C7.71185 8.80828 8.41185 8.10828 11.2202 8.10828H19.9952C22.8035 8.10828 23.5035 8.80828 23.5035 11.6166" stroke="#F5F5F5" stroke-width="1.29118" stroke-linecap="round" stroke-linejoin="round"/>
<path d="M14.3779 23.8917V20.1251" stroke="#F5F5F5" stroke-width="1.29118" stroke-linecap="round" stroke-linejoin="round"/>
<path d="M7.71185 16.7916H14.3785" stroke="#F5F5F5" stroke-width="1.29118" stroke-linecap="round" stroke-linejoin="round"/>
<path d="M11.6619 23.8916H14.3786" stroke="#F5F5F5" stroke-width="1.29118" stroke-linecap="round" stroke-linejoin="round"/>
<path d="M24.3787 16.6666V21.425C24.3787 23.4 23.887 23.8916 21.912 23.8916H18.9537C16.9787 23.8916 16.487 23.4 16.487 21.425V16.6666C16.487 14.6916 16.9787 14.2 18.9537 14.2H21.912C23.887 14.2 24.3787 14.6916 24.3787 16.6666Z" stroke="#F5F5F5" stroke-width="1.29118" stroke-linecap="round" stroke-linejoin="round"/>
<path d="M20.4154 21.2083H20.4229" stroke="#F5F5F5" stroke-width="1.72158" stroke-linecap="round" stroke-linejoin="round"/>
</svg>
