<svg width="32" height="32" viewBox="0 0 32 32" fill="none" xmlns="http://www.w3.org/2000/svg">
<rect width="32" height="32" rx="16" fill="#7209B7"/>
<path d="M13.4999 16.8334C12.9499 17.1084 12.4915 17.5167 12.1499 18.0251C11.9582 18.3167 11.9582 18.6834 12.1499 18.9751C12.4915 19.4834 12.9499 19.8917 13.4999 20.1667" stroke="#F5F5F5" stroke-width="1.72727" stroke-linecap="round" stroke-linejoin="round"/>
<path d="M18.6745 16.8334C19.2245 17.1084 19.6829 17.5167 20.0245 18.0251C20.2162 18.3167 20.2162 18.6834 20.0245 18.9751C19.6829 19.4834 19.2245 19.8917 18.6745 20.1667" stroke="#F5F5F5" stroke-width="1.72727" stroke-linecap="round" stroke-linejoin="round"/>
<path d="M13.4999 24.3332H18.4999C22.6665 24.3332 24.3332 22.6665 24.3332 18.4999V13.4999C24.3332 9.33322 22.6665 7.66655 18.4999 7.66655H13.4999C9.3332 7.66655 7.66653 9.33322 7.66653 13.4999V18.4999C7.66653 22.6665 9.3332 24.3332 13.4999 24.3332Z" stroke="#F5F5F5" stroke-width="1.72727" stroke-linecap="round" stroke-linejoin="round"/>
<path d="M7.85886 12.6751L23.8755 12.6667" stroke="#F5F5F5" stroke-width="1.72727" stroke-linecap="round" stroke-linejoin="round"/>
</svg>
