<svg width="56" height="56" viewBox="0 0 56 56" fill="none" xmlns="http://www.w3.org/2000/svg">
<rect width="56" height="56" rx="15" fill="#B409B7"/>
<path d="M23 44.6667H33C41.3333 44.6667 44.6667 41.3334 44.6667 33V23C44.6667 14.6667 41.3333 11.3334 33 11.3334H23C14.6667 11.3334 11.3333 14.6667 11.3333 23V33C11.3333 41.3334 14.6667 44.6667 23 44.6667Z" stroke="#F5F5F5" stroke-width="2.50076" stroke-linecap="round" stroke-linejoin="round"/>
<path d="M37.1666 28C37.1666 33.0667 33.0666 37.1667 28 37.1667C22.9333 37.1667 19.85 32.0667 19.85 32.0667M19.85 32.0667H23.9833M19.85 32.0667V36.65M18.8333 28C18.8333 22.9334 22.9 18.8334 28 18.8334C34.1166 18.8334 37.1666 23.9334 37.1666 23.9334M37.1666 23.9334V19.35M37.1666 23.9334H33.1" stroke="#F5F5F5" stroke-width="2.50076" stroke-linecap="round" stroke-linejoin="round"/>
</svg>
