<svg width="52" height="52" viewBox="0 0 52 52" fill="none" xmlns="http://www.w3.org/2000/svg">
<rect width="52" height="52" rx="26" fill="#2F80ED"/>
<path d="M21.4993 27.5C20.5093 27.995 19.6843 28.73 19.0693 29.645C18.7243 30.17 18.7243 30.83 19.0693 31.355C19.6843 32.27 20.5093 33.005 21.4993 33.5" stroke="#F5F5F5" stroke-width="2.5" stroke-linecap="round" stroke-linejoin="round"/>
<path d="M30.8158 27.5C31.8058 27.995 32.6308 28.73 33.2458 29.645C33.5908 30.17 33.5908 30.83 33.2458 31.355C32.6308 32.27 31.8058 33.005 30.8158 33.5" stroke="#F5F5F5" stroke-width="2.5" stroke-linecap="round" stroke-linejoin="round"/>
<path d="M21.5013 41H30.5013C38.0013 41 41.0013 38 41.0013 30.5V21.5C41.0013 14 38.0013 11 30.5013 11H21.5013C14.0013 11 11.0013 14 11.0013 21.5V30.5C11.0013 38 14.0013 41 21.5013 41Z" stroke="#F5F5F5" stroke-width="2.5" stroke-linecap="round" stroke-linejoin="round"/>
<path d="M11.3464 20.015L40.1764 20" stroke="#F5F5F5" stroke-width="2.5" stroke-linecap="round" stroke-linejoin="round"/>
</svg>
