<svg width="128" height="964" viewBox="0 0 128 964" fill="none" xmlns="http://www.w3.org/2000/svg">
<path opacity="0.5" d="M110 1V0.5H109.5V1L110 1ZM110 523V523.5H110.5V523H110ZM111 1L111.5 1V0.5H111V1ZM111 523H110.5H111ZM111 524V524.5H111.5L111.5 524H111ZM2 524V523.5H1.5V524H2ZM2 861H1.5V861.5H2V861ZM127 861H127.5V860.5H127V861ZM127 862H127.5H127ZM127 963V963.5H127.5V963H127ZM126 963H125.5V963.5H126V963ZM126 862H126.5V861.5H126V862ZM1.00001 862H0.500015L0.500015 862.5H1.00001V862ZM1 524H0.5H1ZM1 523V522.5H0.5V523H1ZM109.5 1L109.5 523H110.5L110.5 1L109.5 1ZM111 0.5H110V1.5H111V0.5ZM111.5 523L111.5 1L110.5 1L110.5 523H111.5ZM111.5 524L111.5 523H110.5L110.5 524H111.5ZM2 524.5H111V523.5H2V524.5ZM1.5 524V861H2.5V524H1.5ZM2 861.5H127V860.5H2V861.5ZM126.5 861L126.5 862H127.5L127.5 861H126.5ZM126.5 862L126.5 963H127.5L127.5 862H126.5ZM127 962.5H126V963.5H127V962.5ZM126.5 963L126.5 862H125.5L125.5 963H126.5ZM126 861.5H2V862.5H126V861.5ZM2 861.5H1.00001V862.5H2V861.5ZM1.50001 862L1.5 524H0.5L0.500015 862H1.50001ZM1.5 524V523H0.5V524H1.5ZM1 523.5H2V522.5H1V523.5ZM110 522.5H2V523.5H110V522.5Z" fill="url(#paint0_linear_301_1888)"/>
<defs>
<linearGradient id="paint0_linear_301_1888" x1="260.398" y1="1154.86" x2="-40.3378" y2="-180.555" gradientUnits="userSpaceOnUse">
<stop stop-color="white"/>
<stop offset="1" stop-color="#B02FED" stop-opacity="0.13"/>
</linearGradient>
</defs>
</svg>
