<svg width="465" height="295" viewBox="0 0 465 295" fill="none" xmlns="http://www.w3.org/2000/svg">
<path fill-rule="evenodd" clip-rule="evenodd" d="M1.32565 177.786C1.32565 177.786 72.3006 76.4975 87.0879 58.0143C101.875 39.5311 122.576 58.0142 122.576 68.3649V168.173C127.03 174.63 126.272 177.786 138.102 177.786C149.931 177.786 155.106 197.746 138.102 197.746C124.958 200.212 120.539 204.101 122.576 219.187C122.576 219.187 127.012 214.011 122.576 230.277C118.14 246.542 98.1778 243.585 98.1778 230.277V214.751C93.1415 201.957 87.4341 197.361 67.8653 197.746H13.1549C4.28344 197.746 -3.10966 188.874 1.32565 177.786ZM52.1016 152.648C52.1016 182.961 98.1778 185.918 98.1778 152.648C98.1778 119.378 52.1016 122.336 52.1016 152.648Z" fill="#FCFCFC"/>
<path fill-rule="evenodd" clip-rule="evenodd" d="M316.927 177.786C316.927 177.786 387.902 76.4975 402.689 58.0143C417.477 39.5311 438.177 58.0142 438.177 68.3649V168.173C442.631 174.63 441.874 177.786 453.703 177.786C465.532 177.786 470.708 197.746 453.703 197.746C440.56 200.212 436.141 204.101 438.177 219.187C438.177 219.187 442.613 214.011 438.177 230.277C433.741 246.542 413.779 243.585 413.779 230.277V214.751C408.743 201.957 403.036 197.361 383.467 197.746H328.756C319.885 197.746 312.492 188.874 316.927 177.786ZM367.703 152.648C367.703 182.961 413.779 185.918 413.779 152.648C413.779 119.378 367.703 122.336 367.703 152.648Z" fill="#FCFCFC"/>
<path d="M165.07 141.984C165.07 111.526 170.029 87.7969 179.945 70.7969C189.862 53.6198 207.216 45.0313 232.008 45.0313C256.622 45.0313 273.888 53.6198 283.805 70.7969C293.721 87.7969 298.68 111.526 298.68 141.984C298.68 172.974 293.721 197.057 283.805 214.234C273.888 231.411 256.622 240 232.008 240C207.216 240 189.862 231.411 179.945 214.234C170.029 197.057 165.07 172.974 165.07 141.984ZM274.773 141.984C274.773 126.578 273.711 113.563 271.586 102.938C269.638 92.1354 265.477 83.4583 259.102 76.9063C252.904 70.3542 243.872 67.0781 232.008 67.0781C219.966 67.0781 210.758 70.3542 204.383 76.9063C198.185 83.4583 194.023 92.1354 191.898 102.938C189.951 113.563 188.977 126.578 188.977 141.984C188.977 157.922 189.951 171.292 191.898 182.094C194.023 192.896 198.185 201.573 204.383 208.125C210.758 214.677 219.966 217.953 232.008 217.953C243.872 217.953 252.904 214.677 259.102 208.125C265.477 201.573 269.638 192.896 271.586 182.094C273.711 171.292 274.773 157.922 274.773 141.984Z" fill="#FCFCFC"/>
<path d="M212 184.655L251.85 105" stroke="white" stroke-width="20" stroke-linecap="round"/>
</svg>
