<svg width="72" height="53" viewBox="0 0 72 53" fill="none" xmlns="http://www.w3.org/2000/svg">
<path fill-rule="evenodd" clip-rule="evenodd" d="M0.205438 27.5517C0.205438 27.5517 11.2045 11.8549 13.4961 8.99056C15.7877 6.12618 18.9957 8.99054 18.9957 10.5946V26.062C19.686 27.0627 19.5686 27.5517 21.4018 27.5517C23.235 27.5517 24.037 30.645 21.4018 30.645C19.365 31.0272 18.6801 31.6298 18.9957 33.9677C18.9957 33.9677 19.6832 33.1657 18.9957 35.6863C18.3083 38.207 15.2148 37.7487 15.2148 35.6863V33.2803C14.4343 31.2976 13.5498 30.5853 10.5172 30.645H2.03864C0.663811 30.645 -0.481909 29.2701 0.205438 27.5517ZM8.07426 23.6561C8.07426 28.3537 15.2148 28.812 15.2148 23.6561C15.2148 18.5002 8.07426 18.9585 8.07426 23.6561Z" fill="#FEFEFE"/>
<path fill-rule="evenodd" clip-rule="evenodd" d="M49.1147 27.5517C49.1147 27.5517 60.1138 11.8549 62.4054 8.99056C64.697 6.12618 67.905 8.99054 67.905 10.5946V26.062C68.5953 27.0627 68.4778 27.5517 70.3111 27.5517C72.1443 27.5517 72.9463 30.645 70.3111 30.645C68.2742 31.0272 67.5894 31.6298 67.905 33.9677C67.905 33.9677 68.5924 33.1657 67.905 35.6863C67.2175 38.207 64.124 37.7487 64.124 35.6863V33.2803C63.3435 31.2976 62.459 30.5853 59.4264 30.645H50.9479C49.5731 30.645 48.4273 29.2701 49.1147 27.5517ZM56.9835 23.6561C56.9835 28.3537 64.124 28.812 64.124 23.6561C64.124 18.5002 56.9835 18.9585 56.9835 23.6561Z" fill="#FEFEFE"/>
<path d="M25.5813 21.8104C25.5813 17.0902 26.3497 13.4129 27.8865 10.7783C29.4233 8.11638 32.1127 6.7854 35.9547 6.7854C39.7693 6.7854 42.4449 8.11638 43.9817 10.7783C45.5185 13.4129 46.2869 17.0902 46.2869 21.8104C46.2869 26.6129 45.5185 30.3451 43.9817 33.0071C42.4449 35.669 39.7693 37 35.9547 37C32.1127 37 29.4233 35.669 27.8865 33.0071C26.3497 30.3451 25.5813 26.6129 25.5813 21.8104ZM42.5822 21.8104C42.5822 19.4228 42.4175 17.4058 42.0882 15.7592C41.7863 14.0852 41.1414 12.7405 40.1535 11.7251C39.193 10.7097 37.7934 10.202 35.9547 10.202C34.0886 10.202 32.6616 10.7097 31.6736 11.7251C30.7131 12.7405 30.0682 14.0852 29.7389 15.7592C29.437 17.4058 29.2861 19.4228 29.2861 21.8104C29.2861 24.2802 29.437 26.3522 29.7389 28.0262C30.0682 29.7002 30.7131 31.0449 31.6736 32.0603C32.6616 33.0757 34.0886 33.5834 35.9547 33.5834C37.7934 33.5834 39.193 33.0757 40.1535 32.0603C41.1414 31.0449 41.7863 29.7002 42.0882 28.0262C42.4175 26.3522 42.5822 24.2802 42.5822 21.8104Z" fill="#FEFEFE"/>
<path d="M32.8545 28.6162L39.0301 16.2719" stroke="white" stroke-width="3.09943" stroke-linecap="round"/>
<path d="M8.23561 49.5588C7.41349 49.5588 6.80153 49.2683 6.39974 48.6872C6.00414 48.1062 5.80633 47.2809 5.80633 46.2116C5.80633 45.1422 6.00414 44.317 6.39974 43.7359C6.80153 43.1549 7.41349 42.8644 8.23561 42.8644C8.55086 42.8644 8.82284 42.9076 9.05155 42.9942C9.28644 43.0745 9.48733 43.1889 9.65423 43.3372C9.82113 43.4794 9.96021 43.6494 10.0715 43.8472C10.1889 44.0388 10.2847 44.2459 10.3589 44.4684L9.42243 44.7837C9.37298 44.6353 9.31735 44.4962 9.25553 44.3664C9.19372 44.2366 9.11645 44.1254 9.02373 44.0326C8.93101 43.9399 8.81975 43.8657 8.68994 43.8101C8.56631 43.7545 8.41178 43.7267 8.22634 43.7267C7.76892 43.7267 7.43512 43.9028 7.22496 44.2552C7.01479 44.6013 6.90971 45.0711 6.90971 45.6645V46.7586C6.90971 47.352 7.01479 47.8249 7.22496 48.1772C7.43512 48.5234 7.76892 48.6965 8.22634 48.6965C8.41178 48.6965 8.56631 48.6687 8.68994 48.613C8.81975 48.5574 8.93101 48.4832 9.02373 48.3905C9.11645 48.2978 9.19372 48.1865 9.25553 48.0567C9.31735 47.9269 9.37298 47.7878 9.42243 47.6395L10.3589 47.9547C10.2847 48.1772 10.1889 48.3874 10.0715 48.5852C9.96021 48.7768 9.82113 48.9468 9.65423 49.0952C9.48733 49.2373 9.28644 49.3517 9.05155 49.4382C8.82284 49.5186 8.55086 49.5588 8.23561 49.5588ZM13.6098 49.5588C13.2574 49.5588 12.9391 49.5001 12.6548 49.3826C12.3766 49.2652 12.1386 49.0983 11.9408 48.8819C11.7492 48.6656 11.6008 48.4029 11.4957 48.0938C11.3907 47.7847 11.3381 47.4386 11.3381 47.0553C11.3381 46.6721 11.3907 46.3259 11.4957 46.0169C11.6008 45.7078 11.7492 45.4451 11.9408 45.2287C12.1386 45.0124 12.3766 44.8455 12.6548 44.728C12.9391 44.6106 13.2574 44.5519 13.6098 44.5519C13.9621 44.5519 14.2774 44.6106 14.5555 44.728C14.8399 44.8455 15.0778 45.0124 15.2695 45.2287C15.4673 45.4451 15.6187 45.7078 15.7238 46.0169C15.8289 46.3259 15.8814 46.6721 15.8814 47.0553C15.8814 47.4386 15.8289 47.7847 15.7238 48.0938C15.6187 48.4029 15.4673 48.6656 15.2695 48.8819C15.0778 49.0983 14.8399 49.2652 14.5555 49.3826C14.2774 49.5001 13.9621 49.5588 13.6098 49.5588ZM13.6098 48.7614C13.9807 48.7614 14.2743 48.6501 14.4906 48.4276C14.7131 48.1989 14.8244 47.862 14.8244 47.4169V46.6937C14.8244 46.2487 14.7131 45.9149 14.4906 45.6923C14.2743 45.4636 13.9807 45.3493 13.6098 45.3493C13.2389 45.3493 12.9422 45.4636 12.7197 45.6923C12.5033 45.9149 12.3951 46.2487 12.3951 46.6937V47.4169C12.3951 47.862 12.5033 48.1989 12.7197 48.4276C12.9422 48.6501 13.2389 48.7614 13.6098 48.7614ZM17.1666 49.4475V44.6631H18.1773V45.4791H18.2236C18.2731 45.3554 18.3349 45.238 18.4091 45.1267C18.4894 45.0093 18.5852 44.9104 18.6965 44.83C18.8078 44.7435 18.9376 44.6755 19.0859 44.626C19.2343 44.5766 19.4074 44.5519 19.6052 44.5519C20.0873 44.5519 20.4767 44.7095 20.7734 45.0247C21.0701 45.34 21.2185 45.7881 21.2185 46.3692V49.4475H20.2078V46.5175C20.2078 45.7572 19.8771 45.3771 19.2157 45.3771C19.0859 45.3771 18.9592 45.3956 18.8356 45.4327C18.712 45.4636 18.6007 45.5131 18.5018 45.5811C18.4029 45.6491 18.3225 45.7356 18.2607 45.8407C18.2051 45.9458 18.1773 46.0663 18.1773 46.2023V49.4475H17.1666ZM24.7383 49.5588C24.219 49.5588 23.7709 49.4753 23.3938 49.3084C23.0229 49.1415 22.7231 48.919 22.4944 48.6408L23.1156 48.0845C23.3258 48.3132 23.5607 48.4894 23.8203 48.613C24.0861 48.7305 24.3983 48.7892 24.7568 48.7892C25.0844 48.7892 25.3471 48.7336 25.5449 48.6223C25.7489 48.511 25.8509 48.338 25.8509 48.1031C25.8509 48.0042 25.8324 47.9207 25.7953 47.8527C25.7582 47.7847 25.7056 47.7291 25.6376 47.6858C25.5696 47.6426 25.4893 47.6086 25.3966 47.5838C25.31 47.5591 25.2173 47.5406 25.1184 47.5282L24.3581 47.4077C24.1727 47.3829 23.9841 47.3428 23.7925 47.2871C23.6009 47.2315 23.4278 47.1542 23.2733 47.0553C23.1249 46.9502 23.0013 46.8173 22.9024 46.6566C22.8097 46.4959 22.7633 46.2919 22.7633 46.0447C22.7633 45.5563 22.9487 45.1855 23.3196 44.932C23.6967 44.6786 24.1912 44.5519 24.8032 44.5519C25.2482 44.5519 25.6315 44.6199 25.9529 44.7559C26.2805 44.8857 26.5525 45.068 26.7688 45.3029L26.2032 45.8963C26.0796 45.7541 25.9034 45.6243 25.6747 45.5069C25.446 45.3833 25.1431 45.3214 24.7661 45.3214C24.0923 45.3214 23.7554 45.5347 23.7554 45.9612C23.7554 46.1652 23.8265 46.3074 23.9687 46.3877C24.117 46.4619 24.2901 46.5114 24.4879 46.5361L25.2482 46.6566C25.4398 46.6875 25.6284 46.7277 25.8138 46.7772C26.0054 46.8266 26.1754 46.9039 26.3238 47.009C26.4783 47.1079 26.6019 47.2377 26.6947 47.3984C26.7936 47.5591 26.843 47.7631 26.843 48.0103C26.843 48.4925 26.6545 48.8726 26.2774 49.1508C25.9065 49.4228 25.3935 49.5588 24.7383 49.5588ZM31.2807 48.6316H31.2343C31.1849 48.7552 31.12 48.8757 31.0396 48.9932C30.9654 49.1044 30.8727 49.2033 30.7615 49.2899C30.6502 49.3702 30.5204 49.4351 30.372 49.4846C30.2237 49.534 30.0506 49.5588 29.8528 49.5588C29.3707 49.5588 28.9812 49.4011 28.6845 49.0859C28.3878 48.7707 28.2395 48.3225 28.2395 47.7415V44.6631H29.2501V47.5931C29.2501 48.3534 29.5808 48.7336 30.2422 48.7336C30.372 48.7336 30.4988 48.7181 30.6224 48.6872C30.746 48.6501 30.8573 48.5976 30.9562 48.5296C31.0551 48.4616 31.1323 48.3781 31.188 48.2792C31.2498 48.1741 31.2807 48.0505 31.2807 47.9084V44.6631H32.2913V49.4475H31.2807V48.6316ZM33.762 48.6316H35.3475V43.4021H33.762V42.5862H36.3582V48.6316H37.9437V49.4475H33.762V48.6316ZM41.6952 49.4475C41.2749 49.4475 40.9658 49.3362 40.768 49.1137C40.5702 48.885 40.4713 48.5914 40.4713 48.2329V45.4791H38.9971V44.6631H40.0448C40.2241 44.6631 40.3508 44.6291 40.425 44.5611C40.4991 44.487 40.5362 44.3572 40.5362 44.1717V42.9756H41.482V44.6631H43.5218V45.4791H41.482V48.6316H43.5218V49.4475H41.6952ZM48.7476 49.4475C48.4571 49.4475 48.2377 49.3733 48.0893 49.225C47.9471 49.0766 47.8606 48.8819 47.8297 48.6408H47.7833C47.6906 48.9314 47.5206 49.157 47.2734 49.3177C47.0323 49.4784 46.7232 49.5588 46.3462 49.5588C45.8578 49.5588 45.4684 49.4321 45.1779 49.1786C44.8874 48.919 44.7421 48.5636 44.7421 48.1123C44.7421 47.6487 44.9121 47.2964 45.2521 47.0553C45.5982 46.8081 46.1267 46.6844 46.8376 46.6844H47.7555V46.3136C47.7555 45.6645 47.4125 45.34 46.7263 45.34C46.4173 45.34 46.1669 45.4018 45.9753 45.5254C45.7837 45.6429 45.623 45.8005 45.4931 45.9983L44.8905 45.5069C45.0265 45.2473 45.2552 45.0247 45.5766 44.8393C45.898 44.6477 46.3122 44.5519 46.819 44.5519C47.4248 44.5519 47.9008 44.6971 48.2469 44.9877C48.5931 45.2782 48.7662 45.6985 48.7662 46.2487V48.6501H49.3689V49.4475H48.7476ZM46.6336 48.817C46.9612 48.817 47.2301 48.7428 47.4403 48.5945C47.6504 48.4461 47.7555 48.2545 47.7555 48.0196V47.3242H46.8561C46.1267 47.3242 45.762 47.5436 45.762 47.9825V48.168C45.762 48.3843 45.8393 48.5481 45.9938 48.6594C46.1484 48.7645 46.3616 48.817 46.6336 48.817ZM50.5242 49.4475V44.6631H51.5349V45.4791H51.5813C51.6307 45.3554 51.6925 45.238 51.7667 45.1267C51.8471 45.0093 51.9429 44.9104 52.0541 44.83C52.1654 44.7435 52.2952 44.6755 52.4436 44.626C52.5919 44.5766 52.765 44.5519 52.9628 44.5519C53.4449 44.5519 53.8344 44.7095 54.1311 45.0247C54.4278 45.34 54.5761 45.7881 54.5761 46.3692V49.4475H53.5655V46.5175C53.5655 45.7572 53.2348 45.3771 52.5734 45.3771C52.4436 45.3771 52.3168 45.3956 52.1932 45.4327C52.0696 45.4636 51.9583 45.5131 51.8594 45.5811C51.7605 45.6491 51.6802 45.7356 51.6183 45.8407C51.5627 45.9458 51.5349 46.0663 51.5349 46.2023V49.4475H50.5242ZM58.374 49.4475C57.9537 49.4475 57.6446 49.3362 57.4468 49.1137C57.249 48.885 57.1501 48.5914 57.1501 48.2329V45.4791H55.6759V44.6631H56.7236C56.9029 44.6631 57.0296 44.6291 57.1038 44.5611C57.1779 44.487 57.215 44.3572 57.215 44.1717V42.9756H58.1608V44.6631H60.2006V45.4791H58.1608V48.6316H60.2006V49.4475H58.374ZM63.6555 49.5588C63.1363 49.5588 62.6881 49.4753 62.311 49.3084C61.9402 49.1415 61.6404 48.919 61.4117 48.6408L62.0329 48.0845C62.243 48.3132 62.4779 48.4894 62.7376 48.613C63.0034 48.7305 63.3155 48.7892 63.674 48.7892C64.0016 48.7892 64.2644 48.7336 64.4622 48.6223C64.6661 48.511 64.7681 48.338 64.7681 48.1031C64.7681 48.0042 64.7496 47.9207 64.7125 47.8527C64.6754 47.7847 64.6229 47.7291 64.5549 47.6858C64.4869 47.6426 64.4065 47.6086 64.3138 47.5838C64.2273 47.5591 64.1345 47.5406 64.0356 47.5282L63.2753 47.4077C63.0899 47.3829 62.9014 47.3428 62.7097 47.2871C62.5181 47.2315 62.345 47.1542 62.1905 47.0553C62.0422 46.9502 61.9185 46.8173 61.8196 46.6566C61.7269 46.4959 61.6805 46.2919 61.6805 46.0447C61.6805 45.5563 61.866 45.1855 62.2369 44.932C62.6139 44.6786 63.1084 44.5519 63.7204 44.5519C64.1654 44.5519 64.5487 44.6199 64.8701 44.7559C65.1977 44.8857 65.4697 45.068 65.6861 45.3029L65.1205 45.8963C64.9968 45.7541 64.8207 45.6243 64.592 45.5069C64.3633 45.3833 64.0604 45.3214 63.6833 45.3214C63.0095 45.3214 62.6726 45.5347 62.6726 45.9612C62.6726 46.1652 62.7437 46.3074 62.8859 46.3877C63.0343 46.4619 63.2073 46.5114 63.4051 46.5361L64.1654 46.6566C64.3571 46.6875 64.5456 46.7277 64.731 46.7772C64.9227 46.8266 65.0927 46.9039 65.241 47.009C65.3955 47.1079 65.5192 47.2377 65.6119 47.3984C65.7108 47.5591 65.7602 47.7631 65.7602 48.0103C65.7602 48.4925 65.5717 48.8726 65.1946 49.1508C64.8238 49.4228 64.3107 49.5588 63.6555 49.5588Z" fill="#FEFEFE"/>
</svg>
