<svg width="183" height="39" viewBox="0 0 183 39" fill="none" xmlns="http://www.w3.org/2000/svg">
<g clip-path="url(#clip0_301_2102)">
<path d="M64.4608 22.4627L63.3725 25.5464H63.2818C63.1004 24.8511 62.7678 23.7929 62.2236 22.5232L56.3888 7.86038H50.6748V31.2302H54.4539V16.8092C54.4539 15.9022 54.4539 14.8743 54.4236 13.6046C54.3934 12.9697 54.3329 12.486 54.3027 12.1232H54.3934C54.5748 13.0301 54.7864 13.6953 54.9376 14.1185L61.9515 31.1697H64.612L71.5655 13.9674C71.7167 13.5743 71.8678 12.7883 72.019 12.1232H72.1097C72.019 13.8464 71.9585 15.3883 71.9283 16.3255V31.1395H75.9492V7.79992H70.4469L64.4608 22.4627ZM79.7585 14.3906H83.6888V31.1395H79.7585V14.3906ZM81.7539 7.3162C81.0888 7.3162 80.5446 7.55806 80.0911 7.98131C79.6376 8.40457 79.3957 8.94875 79.3957 9.61387C79.3957 10.2488 79.6376 10.7929 80.0911 11.2162C80.5446 11.6395 81.0888 11.8511 81.7539 11.8511C82.419 11.8511 82.9934 11.6092 83.4167 11.2162C83.8702 10.7929 84.112 10.2488 84.112 9.61387C84.112 8.97899 83.8702 8.4348 83.4167 7.98131C83.0236 7.55806 82.4492 7.3162 81.7539 7.3162ZM97.626 14.2395C96.9004 14.0883 96.1446 13.9976 95.419 13.9976C93.6353 13.9976 92.0027 14.3906 90.6422 15.1767C89.2818 15.9627 88.1934 17.0511 87.4981 18.4115C86.7725 19.8022 86.4097 21.4046 86.4097 23.2488C86.4097 24.8511 86.7725 26.272 87.4678 27.572C88.1632 28.8418 89.1306 29.8697 90.4306 30.565C91.6702 31.2604 93.1213 31.6232 94.7539 31.6232C96.6283 31.6232 98.2306 31.2301 99.5004 30.5046L99.5306 30.4743V26.8464L99.3795 26.9674C98.805 27.3906 98.1399 27.7534 97.4748 27.965C96.7795 28.2069 96.1446 28.3278 95.6004 28.3278C94.0283 28.3278 92.7888 27.8743 91.912 26.8767C91.005 25.9092 90.5516 24.579 90.5516 22.9162C90.5516 21.1929 91.005 19.8325 91.9422 18.8348C92.8795 17.8371 94.119 17.3232 95.6306 17.3232C96.9004 17.3232 98.2004 17.7464 99.3795 18.5929L99.5306 18.7139V14.8743L99.5004 14.8441C98.9864 14.6325 98.412 14.3906 97.626 14.2395ZM110.596 14.1185C109.628 14.1185 108.721 14.4208 107.935 15.0557C107.27 15.5999 106.817 16.386 106.424 17.3232H106.393V14.3906H102.463V31.1395H106.393V22.5836C106.393 21.1325 106.696 19.9232 107.361 19.0464C108.026 18.1395 108.872 17.686 109.9 17.686C110.263 17.686 110.626 17.7767 111.079 17.8371C111.503 17.9581 111.805 18.079 112.017 18.2301L112.168 18.3511V14.4208L112.077 14.3906C111.805 14.2092 111.261 14.1185 110.596 14.1185ZM121.298 14.0278C118.547 14.0278 116.34 14.8441 114.798 16.4464C113.226 18.0488 112.47 20.2557 112.47 23.0371C112.47 25.6371 113.256 27.7534 114.768 29.2953C116.279 30.8069 118.335 31.5929 120.905 31.5929C123.596 31.5929 125.742 30.7767 127.284 29.1441C128.856 27.5115 129.612 25.3348 129.612 22.6441C129.612 19.9836 128.886 17.8674 127.405 16.3255C125.984 14.7836 123.898 14.0278 121.298 14.0278ZM124.442 26.9069C123.717 27.8441 122.568 28.2976 121.147 28.2976C119.726 28.2976 118.577 27.8441 117.761 26.8464C116.945 25.9092 116.552 24.5488 116.552 22.8255C116.552 21.0418 116.975 19.6813 117.761 18.7139C118.577 17.7464 119.696 17.2627 121.117 17.2627C122.507 17.2627 123.596 17.7162 124.382 18.6534C125.168 19.5906 125.591 20.9511 125.591 22.7348C125.531 24.5488 125.198 25.9697 124.442 26.9069ZM138.379 21.3441C137.14 20.8301 136.354 20.4371 135.991 20.1046C135.689 19.8022 135.538 19.379 135.538 18.8348C135.538 18.3813 135.719 17.9278 136.172 17.6255C136.626 17.3232 137.14 17.172 137.896 17.172C138.561 17.172 139.256 17.2929 139.921 17.4743C140.586 17.6557 141.191 17.9278 141.675 18.2906L141.826 18.4115V14.7232L141.735 14.6929C141.282 14.5115 140.677 14.3301 139.952 14.179C139.226 14.0581 138.561 13.9976 138.017 13.9976C136.142 13.9976 134.6 14.4511 133.391 15.4488C132.182 16.386 131.607 17.6557 131.607 19.1371C131.607 19.9232 131.728 20.6185 132 21.1929C132.272 21.7674 132.666 22.3115 133.21 22.765C133.754 23.1883 134.54 23.672 135.628 24.1255C136.535 24.5185 137.231 24.8208 137.654 25.0627C138.077 25.3046 138.349 25.5767 138.561 25.7883C138.712 26.0301 138.803 26.3325 138.803 26.7255C138.803 27.8441 137.956 28.3883 136.233 28.3883C135.568 28.3883 134.872 28.2674 134.056 27.9953C133.24 27.7232 132.484 27.3301 131.849 26.8767L131.698 26.7557V30.5953L131.789 30.6255C132.363 30.8976 133.059 31.079 133.905 31.2906C134.752 31.4418 135.507 31.5627 136.172 31.5627C138.198 31.5627 139.861 31.1092 141.04 30.1115C142.249 29.1441 142.884 27.9046 142.884 26.3022C142.884 25.1836 142.582 24.186 141.917 23.4301C141.04 22.7046 139.952 21.9488 138.379 21.3441ZM153.254 14.0278C150.503 14.0278 148.296 14.8441 146.754 16.4464C145.212 18.0488 144.426 20.2557 144.426 23.0371C144.426 25.6371 145.212 27.7534 146.724 29.2953C148.235 30.8069 150.291 31.5929 152.861 31.5929C155.552 31.5929 157.698 30.7767 159.24 29.1441C160.812 27.5115 161.568 25.3348 161.568 22.6441C161.568 19.9836 160.842 17.8674 159.361 16.3255C157.94 14.7836 155.854 14.0278 153.254 14.0278ZM156.368 26.9069C155.642 27.8441 154.493 28.2976 153.072 28.2976C151.621 28.2976 150.503 27.8441 149.686 26.8464C148.87 25.9092 148.477 24.5488 148.477 22.8255C148.477 21.0418 148.9 19.6813 149.686 18.7139C150.503 17.7464 151.621 17.2627 153.042 17.2627C154.403 17.2627 155.521 17.7162 156.307 18.6534C157.093 19.5906 157.517 20.9511 157.517 22.7348C157.517 24.5488 157.124 25.9697 156.368 26.9069ZM182.579 17.6255V14.3906H178.619V9.43247L178.498 9.46271L174.749 10.5813L174.659 10.6115V14.3906H168.733V12.2743C168.733 11.3069 168.975 10.5511 169.398 10.0674C169.821 9.58364 170.456 9.34178 171.242 9.34178C171.786 9.34178 172.361 9.46271 172.996 9.7348L173.147 9.8255V6.40922L173.056 6.37899C172.512 6.19759 171.786 6.07666 170.849 6.07666C169.67 6.07666 168.642 6.34875 167.705 6.80224C166.768 7.31619 166.072 8.01154 165.559 8.94875C165.045 9.85573 164.772 10.8836 164.772 12.0627V14.3906H162.021V17.5953H164.772V31.1395H168.733V17.6255H174.659V26.2418C174.659 29.779 176.321 31.5627 179.647 31.5627C180.191 31.5627 180.766 31.472 181.31 31.3813C181.884 31.2604 182.307 31.1092 182.549 30.9883L182.579 30.9581V27.7232L182.428 27.8441C182.186 27.9953 181.975 28.1162 181.612 28.2069C181.31 28.2976 181.038 28.3278 180.826 28.3278C180.04 28.3278 179.496 28.1464 179.103 27.6929C178.74 27.2697 178.559 26.5743 178.559 25.5464V17.6255H182.579Z" fill="#FCFCFC"/>
<path d="M0.00585938 0H18.5384V18.5326H0.00585938V0Z" fill="#FCFCFC"/>
<path d="M20.4727 0H39.0052V18.5326H20.4727V0Z" fill="#FCFCFC"/>
<path d="M0.00488281 20.4668H18.5374V38.9994H0.00488281V20.4668Z" fill="#FCFCFC"/>
<path d="M20.4727 20.4668H39.0052V38.9994H20.4727V20.4668Z" fill="#FCFCFC"/>
</g>
<defs>
<clipPath id="clip0_301_2102">
<rect width="182.584" height="39" fill="white"/>
</clipPath>
</defs>
</svg>
