<svg width="21" height="21" viewBox="0 0 21 21" fill="none" xmlns="http://www.w3.org/2000/svg">
<path d="M8.33466 11.4789C7.78466 11.7539 7.32633 12.1622 6.98466 12.6706C6.793 12.9622 6.793 13.3289 6.98466 13.6206C7.32633 14.1289 7.78466 14.5372 8.33466 14.8122" stroke="#F5F5F5" stroke-width="1.72727" stroke-linecap="round" stroke-linejoin="round"/>
<path d="M13.5116 11.4789C14.0616 11.7539 14.5199 12.1622 14.8616 12.6706C15.0533 12.9622 15.0533 13.3289 14.8616 13.6206C14.5199 14.1289 14.0616 14.5372 13.5116 14.8122" stroke="#F5F5F5" stroke-width="1.72727" stroke-linecap="round" stroke-linejoin="round"/>
<path d="M8.33582 18.9787H13.3358C17.5025 18.9787 19.1692 17.3121 19.1692 13.1454V8.14539C19.1692 3.97872 17.5025 2.31206 13.3358 2.31206H8.33582C4.16915 2.31206 2.50249 3.97872 2.50249 8.14539V13.1454C2.50249 17.3121 4.16915 18.9787 8.33582 18.9787Z" stroke="#F5F5F5" stroke-width="1.72727" stroke-linecap="round" stroke-linejoin="round"/>
<path d="M2.69365 7.32059L18.7103 7.31226" stroke="#F5F5F5" stroke-width="1.72727" stroke-linecap="round" stroke-linejoin="round"/>
</svg>
