<svg width="20" height="21" viewBox="0 0 20 21" fill="none" xmlns="http://www.w3.org/2000/svg">
<path d="M7.49872 11.4789C6.94872 11.7539 6.49039 12.1622 6.14872 12.6706C5.95706 12.9622 5.95706 13.3289 6.14872 13.6206C6.49039 14.1289 6.94872 14.5372 7.49872 14.8122" stroke="#F5F5F5" stroke-width="1.72727" stroke-linecap="round" stroke-linejoin="round"/>
<path d="M12.6757 11.4789C13.2257 11.7539 13.684 12.1622 14.0257 12.6706C14.2173 12.9622 14.2173 13.3289 14.0257 13.6206C13.684 14.1289 13.2257 14.5372 12.6757 14.8122" stroke="#F5F5F5" stroke-width="1.72727" stroke-linecap="round" stroke-linejoin="round"/>
<path d="M7.49988 18.9787H12.4999C16.6665 18.9787 18.3332 17.3121 18.3332 13.1454V8.14539C18.3332 3.97872 16.6665 2.31206 12.4999 2.31206H7.49988C3.33322 2.31206 1.66655 3.97872 1.66655 8.14539V13.1454C1.66655 17.3121 3.33322 18.9787 7.49988 18.9787Z" stroke="#F5F5F5" stroke-width="1.72727" stroke-linecap="round" stroke-linejoin="round"/>
<path d="M1.85771 7.32059L17.8744 7.31226" stroke="#F5F5F5" stroke-width="1.72727" stroke-linecap="round" stroke-linejoin="round"/>
</svg>
