<svg width="32" height="33" viewBox="0 0 32 33" fill="none" xmlns="http://www.w3.org/2000/svg">
<path d="M2.66667 16.9082H12C14.2667 16.9082 16 18.6415 16 20.9082C16 23.1749 14.2667 24.9082 12 24.9082H4.00001C3.20001 24.9082 2.66667 24.3749 2.66667 23.5749V10.2415C2.66667 9.44154 3.20001 8.9082 4.00001 8.9082H10.6667C12.9333 8.9082 14.6667 10.6415 14.6667 12.9082C14.6667 15.1749 12.9333 16.9082 10.6667 16.9082H2.66667Z" stroke="#F5F5F5" stroke-width="1.5" stroke-miterlimit="10"/>
<path d="M18.6667 19.5748H29.3333C29.3333 16.6415 26.9333 14.2415 24 14.2415C21.0667 14.2415 18.6667 16.6415 18.6667 19.5748ZM18.6667 19.5748C18.6667 22.5081 21.0667 24.9081 24 24.9081H26.2667" stroke="#F5F5F5" stroke-width="1.5" stroke-miterlimit="10" stroke-linecap="round" stroke-linejoin="round"/>
<path d="M26 10.9082H22" stroke="#F5F5F5" stroke-width="1.5" stroke-miterlimit="10" stroke-linecap="round" stroke-linejoin="round"/>
</svg>
