<svg width="32" height="33" viewBox="0 0 32 33" fill="none" xmlns="http://www.w3.org/2000/svg">
<path d="M24.6667 7.29492C21.2 13.3616 14.52 16.8416 7.56 16.2149L3.33333 15.8283" stroke="#F5F5F5" stroke-width="1.5" stroke-miterlimit="10" stroke-linecap="round" stroke-linejoin="round"/>
<path d="M7.33333 26.7348C10.8 20.6682 17.48 17.1882 24.44 17.8148L28.6667 18.2015" stroke="#F5F5F5" stroke-width="1.5" stroke-miterlimit="10" stroke-linecap="round" stroke-linejoin="round"/>
<path d="M16 30.2416C23.3638 30.2416 29.3333 24.2721 29.3333 16.9083C29.3333 9.54449 23.3638 3.57495 16 3.57495C8.6362 3.57495 2.66667 9.54449 2.66667 16.9083C2.66667 24.2721 8.6362 30.2416 16 30.2416Z" stroke="#F5F5F5" stroke-width="1.5" stroke-miterlimit="10" stroke-linecap="round" stroke-linejoin="round"/>
<path d="M10.1733 4.9082L14.4133 10.1749C17.2533 13.6949 19.2667 17.7882 20.3333 22.1749L21.9467 28.8282" stroke="#F5F5F5" stroke-width="1.5" stroke-miterlimit="10" stroke-linecap="round" stroke-linejoin="round"/>
</svg>
