<svg width="32" height="33" viewBox="0 0 32 33" fill="none" xmlns="http://www.w3.org/2000/svg">
<path d="M18.6667 13.3082V17.1749H22.1333C22.4 17.1749 22.5333 17.4415 22.5333 17.7082L22 20.2415C22 20.3749 21.7333 20.5082 21.6 20.5082H18.6667V30.2415H14.6667V20.6415H12.4C12.1333 20.6415 12 20.5082 12 20.2415V17.7082C12 17.4415 12.1333 17.3082 12.4 17.3082H14.6667V12.9082C14.6667 10.6415 16.4 8.9082 18.6667 8.9082H22.2667C22.5333 8.9082 22.6667 9.04154 22.6667 9.3082V12.5082C22.6667 12.7749 22.5333 12.9082 22.2667 12.9082H19.0667C18.8 12.9082 18.6667 13.0415 18.6667 13.3082Z" stroke="#FEFEFE" stroke-width="2" stroke-miterlimit="10" stroke-linecap="round"/>
<path d="M20 30.2416H12C5.33333 30.2416 2.66667 27.575 2.66667 20.9083V12.9083C2.66667 6.24162 5.33333 3.57495 12 3.57495H20C26.6667 3.57495 29.3333 6.24162 29.3333 12.9083V20.9083C29.3333 27.575 26.6667 30.2416 20 30.2416Z" stroke="#FEFEFE" stroke-width="2" stroke-linecap="round" stroke-linejoin="round"/>
</svg>
