<svg width="32" height="33" viewBox="0 0 32 33" fill="none" xmlns="http://www.w3.org/2000/svg">
<path d="M12 30.2416H20C26.6667 30.2416 29.3333 27.575 29.3333 20.9083V12.9083C29.3333 6.24162 26.6667 3.57495 20 3.57495H12C5.33333 3.57495 2.66666 6.24162 2.66666 12.9083V20.9083C2.66666 27.575 5.33333 30.2416 12 30.2416Z" stroke="#FEFEFE" stroke-width="1.5" stroke-linecap="round" stroke-linejoin="round"/>
<path d="M16 21.5748C18.5773 21.5748 20.6667 19.4855 20.6667 16.9081C20.6667 14.3308 18.5773 12.2415 16 12.2415C13.4227 12.2415 11.3333 14.3308 11.3333 16.9081C11.3333 19.4855 13.4227 21.5748 16 21.5748Z" stroke="#FEFEFE" stroke-width="1.5" stroke-linecap="round" stroke-linejoin="round"/>
<path d="M23.5148 10.2416H23.5302" stroke="#FEFEFE" stroke-width="2" stroke-linecap="round" stroke-linejoin="round"/>
</svg>
