<svg width="169" height="59" viewBox="0 0 169 59" fill="none" xmlns="http://www.w3.org/2000/svg">
<path fill-rule="evenodd" clip-rule="evenodd" d="M138.312 26.1666V35.9032C138.312 36.0443 138.47 36.1213 138.615 36.1213H141.583C141.792 36.1213 141.934 35.9845 141.934 35.7707V28.9589C141.934 28.3346 141.891 27.8471 141.891 27.257L142.002 25.5808C142.271 24.2552 143.593 24.2894 144.773 24.2894C145.23 24.2894 146.021 24.3321 146.359 24.4519C146.851 24.6272 147.048 24.888 147.193 25.4097C147.39 26.1281 147.309 27.9326 147.309 28.8733V35.9888C147.403 36.0529 147.454 36.1213 147.612 36.1213H150.58C150.742 36.1213 150.789 36.0529 150.883 35.9888V28.8733C150.883 27.9283 150.798 26.1324 150.99 25.3969C151.106 24.9479 151.375 24.5844 151.828 24.4433C152.359 24.2766 153.261 24.2851 153.898 24.2851C155.112 24.2851 156.015 24.5545 156.181 25.6235C156.335 26.5899 156.254 31.4219 156.254 32.7988V35.5526C156.25 35.8904 156.276 36.117 156.605 36.117H159.572C159.778 36.117 159.876 36.0144 159.876 35.8134V26.6883C159.876 24.6443 159.645 23.4727 158.533 22.4849C157.045 21.1593 153.338 21.0267 151.213 21.5185C150.794 21.6168 150.199 21.7964 149.819 21.9589C149.306 22.1813 149.613 22.1471 148.916 22.1471L148.061 21.7793C146.689 21.3004 145.406 21.2705 143.939 21.2705C141.711 21.2705 139.312 21.7708 138.628 23.819C138.41 24.4818 138.307 25.3028 138.307 26.1623L138.312 26.1666ZM104.3 31.362C104.3 30.5111 104.573 30.1604 105.335 29.8654C106.528 29.3993 108.349 29.4677 109.585 29.4848C110.124 29.4934 111.253 29.6601 111.766 29.6601C111.766 30.3871 111.714 32.0077 111.33 32.5422C110.898 33.1452 109.589 33.3632 108.841 33.3718C107.738 33.3846 106.737 33.4573 105.766 33.2136C104.834 32.9784 104.3 32.3712 104.3 31.362ZM102.555 25.2045C102.777 25.2045 102.948 25.0933 103.128 25.0334C103.342 24.965 103.521 24.918 103.727 24.8496C104.09 24.7298 104.565 24.6015 104.954 24.5075C106.352 24.1697 106.887 24.1141 108.362 24.1141C109.234 24.1141 110.303 24.2851 110.851 24.593C111.603 25.0206 111.68 25.8844 111.68 26.731C110.915 26.731 110.179 26.5985 109.149 26.5985C106.382 26.5985 102.098 26.684 101.165 29.6174C100.682 31.1354 100.93 33.2392 101.931 34.428C102.123 34.6546 101.991 34.5605 102.273 34.7829C104.24 36.3137 105.972 36.3351 108.666 36.3351C110.757 36.3351 113.344 35.8947 114.515 34.1073C115.636 32.4011 115.477 30.1348 115.477 28.0823C115.477 27.0475 115.319 25.8416 115.058 25.0548C114.904 24.5887 114.776 24.2167 114.541 23.8233C114.139 23.1434 113.506 22.4892 112.826 22.0872C110.141 20.4965 106.339 20.9284 103.487 21.6382C102.123 21.9803 102.204 21.9589 102.204 22.9724C102.204 23.3871 102.247 23.8661 102.187 24.2637C102.119 24.7042 102.115 25.2002 102.555 25.2002V25.2045ZM122.507 29.0487C122.507 27.5862 122.516 26.0426 123.367 25.1959C124.03 24.5374 124.633 24.3792 125.573 24.2595L126.608 24.2039C127.775 24.2039 128.81 24.3279 129.691 25.0078C129.807 25.0976 129.849 25.1489 129.926 25.2515C130.91 26.5301 130.713 27.9412 130.713 29.7072C130.713 31.4262 130.204 32.6662 128.712 33.1623C127.818 33.4573 127.113 33.4188 126.172 33.4188C124.932 33.4188 123.782 33.034 123.251 32.3199C122.559 31.392 122.503 30.2845 122.503 29.0529L122.507 29.0487ZM118.928 28.7878C118.928 30.0022 119.065 31.1696 119.339 32.1317C119.634 33.1708 120.305 34.3681 121.173 35.0138C122.721 36.1683 124.765 36.3864 126.788 36.3864C127.925 36.3864 129.135 36.271 130.033 36.0101C130.431 35.8947 130.982 35.7108 131.325 35.5141C131.645 35.326 132.116 35.001 132.385 34.7444C132.488 34.6461 132.505 34.6076 132.586 34.5092C133.185 33.7609 133.369 33.5728 133.766 32.4995C134.63 30.1818 134.587 25.3413 132.8 23.3487C131.898 22.3438 131.299 22.0145 129.943 21.6211C127.878 21.0139 123.743 21.0738 121.853 22.1642C119.728 23.3914 118.924 25.8502 118.924 28.8007L118.928 28.7878ZM72.8662 21.7152C72.9518 22.0787 75.2651 24.8025 75.6371 25.2772L78.0873 28.326C78.1643 28.4201 78.19 28.45 78.2627 28.5441C78.3439 28.6467 78.3952 28.698 78.4551 28.7878C78.3995 29.023 75.8082 32.1531 75.6671 32.3284L73.1998 35.4029C73.0672 35.574 72.9218 35.6723 72.8705 35.9032C72.9432 36.0401 72.9646 36.1213 73.1741 36.1213H77.0611C77.3732 36.1213 77.7923 35.3901 78.1173 34.9967L79.5626 33.1238C79.7123 32.9399 80.948 31.392 80.9908 31.2338C81.1618 31.2808 81.8332 32.3028 81.9529 32.4567L83.8002 34.9753C84.091 35.3644 84.5228 36.1213 84.835 36.1213C85.5277 36.1213 88.444 36.1812 88.8973 36.0785C89.0469 35.7664 88.8203 35.5825 88.4269 35.1079C87.7598 34.304 86.9602 33.205 86.2846 32.3626L83.441 28.7023C83.5479 28.4971 86.2889 25.1446 86.5326 24.8496L87.5845 23.5453C87.7556 23.3315 88.9443 21.929 88.9443 21.805C88.9443 21.604 88.8844 21.5014 88.5509 21.5014H84.882C84.5143 21.5014 84.4758 21.681 84.2577 21.9675C83.9584 22.3694 80.9908 26.3419 80.8625 26.4317L79.0024 23.8789C78.6774 23.447 78.3909 23.0493 78.0745 22.626L77.3732 21.6681C77.2792 21.5441 77.1936 21.4971 76.9756 21.4971H73.2212C73.0202 21.4971 72.9817 21.5912 72.8705 21.7152H72.8662ZM164.725 21.8435V35.7707C164.725 35.9289 164.845 36.1213 164.986 36.1213H168.043C168.189 36.1213 168.347 36.0443 168.347 35.9032V21.8007C168.347 21.5912 168.197 21.4971 167.996 21.4971H165.157C164.896 21.4971 164.721 21.5869 164.721 21.8477L164.725 21.8435ZM93.0365 21.7152V35.9032C93.0365 36.0059 93.152 36.1213 93.2546 36.1213H96.3975C96.5002 36.1213 96.6156 36.0059 96.6156 35.9032V21.7152C96.6156 21.5441 96.4018 21.4971 96.2222 21.4971H93.4299C93.2546 21.4971 93.0365 21.5441 93.0365 21.7152Z" fill="#FCFCFC"/>
<path fill-rule="evenodd" clip-rule="evenodd" d="M22.4462 40.4093V27.2111C22.4462 27.0606 22.5967 26.91 22.7473 26.91H27.8707C28.0212 26.91 28.1718 27.0606 28.1718 27.2111V40.4093C28.1718 40.613 27.9888 40.7399 27.7792 40.7399H22.8387C22.6292 40.7399 22.4462 40.613 22.4462 40.4093ZM33.1536 0H33.2657C33.5254 0.00295131 33.7497 0.0295131 34.0449 0.0295131C34.1954 0.0295131 34.3489 0.0265618 34.4994 0.0295131C34.6735 0.0324644 34.7266 0.0619775 34.9185 0.0619775C35.066 0.0619775 35.2254 0.0560749 35.373 0.0590262C35.5294 0.0649288 35.5796 0.0914906 35.7625 0.0914906C36.0665 0.0914906 36.3292 0.103296 36.6361 0.121004L37.4477 0.182981C37.8403 0.185933 38.6637 0.265618 39.0709 0.306936C41.0896 0.519431 43.1497 0.782097 45.0769 1.3517C45.3189 1.42253 45.5343 1.47565 45.7763 1.55534C46.4315 1.76783 47.0838 1.98623 47.7153 2.23709C48.1403 2.40532 48.5269 2.61191 48.946 2.78309C49.3415 2.94541 49.7104 3.18741 50.0852 3.39401C50.4748 3.6065 50.8142 3.8367 51.1772 4.07871L52.6824 5.22382C53.0897 5.54256 54.1226 6.5342 54.4591 6.97099L54.8605 7.4432C55.6603 8.45255 56.3568 9.49141 56.9441 10.6631C57.5609 11.8938 58.0302 13.1717 58.4168 14.4939C59.0189 16.5539 59.2313 18.3542 59.497 20.4644L59.8069 25.88C59.8039 26.3021 59.7655 26.789 59.8098 27.2022C59.8718 27.7512 59.8541 31.2072 59.8069 31.7886C59.7714 32.2224 59.8069 32.7035 59.8069 33.1432C59.8069 33.3291 59.7744 33.3764 59.7744 33.5623L59.7449 34.8904C59.7449 35.0763 59.7124 35.1235 59.7124 35.3095C59.7124 35.8761 59.6298 37.1599 59.5589 37.8358L59.2874 40.247C59.0336 42.0267 58.6824 43.7089 58.1453 45.4C57.5462 47.2829 56.646 49.1806 55.4596 50.7596C55.3887 50.857 55.3445 50.9249 55.2707 51.0222C54.825 51.6096 54.341 52.1821 53.8186 52.7045C53.3675 53.159 52.8937 53.5905 52.3991 53.9972L51.9091 54.3808C51.4783 54.7025 51.0326 55.0242 50.5663 55.2987L49.7222 55.7798C49.6101 55.8388 49.5511 55.8801 49.43 55.9421C48.0046 56.6474 47.435 56.8481 45.9091 57.3646C45.4635 57.5151 44.9972 57.6273 44.5161 57.7483C40.036 58.8698 34.5613 58.9347 29.311 58.9347C24.5623 58.9347 19.9288 58.6838 16.1363 57.7365C14.6636 57.3676 12.577 56.6947 11.1988 55.8949C11.1073 55.8417 11.0187 55.8093 10.9184 55.7532C9.60212 55.0183 9.17713 54.6612 8.11171 53.8289C8.04973 53.7817 8.05268 53.7876 7.99661 53.7345L7.51259 53.3125C7.01382 52.8344 6.39995 52.2441 5.98381 51.707L5.19286 50.6917C4.39896 49.6381 3.79099 48.4428 3.25385 47.2387L2.99118 46.5982C2.90855 46.368 2.83477 46.188 2.75803 45.9578C2.6872 45.7424 2.58981 45.5122 2.52783 45.2849C2.4629 45.0458 2.38026 44.8156 2.31829 44.5913C2.18548 44.1162 2.07038 43.6587 1.95527 43.1747C1.72212 42.1801 1.55685 41.1796 1.40633 40.1083C1.31484 39.462 1.07874 37.4816 1.07578 36.853C1.07283 36.189 0.97544 35.3892 0.954781 34.7133C0.95183 34.5657 0.957732 34.4093 0.957732 34.2588C0.957732 34.0729 0.925268 34.0257 0.925268 33.8397L0.895755 30.7349C0.895755 30.4369 0.866241 30.2155 0.866241 29.8909C0.866241 28.6838 0.901657 27.5357 0.895755 26.305C0.895755 26.1132 0.925268 26.0601 0.928219 25.8859C0.934122 25.2986 0.969537 23.3655 1.04037 22.8638C1.09644 22.4595 1.08169 21.6833 1.15547 21.1727C1.19679 20.8982 1.20564 20.6149 1.2322 20.3434C1.45355 18.0591 1.85198 15.7393 2.5662 13.6026C3.00594 12.2834 3.53127 11.0527 4.20417 9.84557L4.88888 8.75063C5.25189 8.20759 5.64736 7.71177 6.0576 7.2071L6.67737 6.50174C6.95479 6.18595 7.306 5.90557 7.59523 5.61339C8.24747 4.9523 9.68476 3.94885 10.4344 3.50911C13.0433 1.97738 15.5165 1.29267 18.4501 0.737827C19.3473 0.566652 21.1122 0.324644 22.0242 0.274472C22.4492 0.250861 22.8505 0.185933 23.2903 0.182981C23.7035 0.18003 24.4 0.0914906 24.9784 0.0914906C25.1703 0.0914906 25.2234 0.0619775 25.3975 0.0590262C25.548 0.0560749 25.7015 0.0619775 25.852 0.0619775C26.0262 0.0590262 26.0793 0.0295131 26.2711 0.0295131L33.1536 0ZM42.3646 40.3798V18.5933C42.3646 18.3867 42.5033 18.2007 42.6952 18.2007H47.5471C47.7389 18.2007 47.8777 18.3867 47.8777 18.5933V40.3798C47.8777 40.5953 47.6829 40.7428 47.4556 40.7428H42.7837C42.5564 40.7428 42.3617 40.5953 42.3617 40.3798H42.3646ZM17.6858 40.7428H12.9843C12.7748 40.7428 12.5918 40.6159 12.5918 40.4123V18.5342C12.5918 18.3571 12.7482 18.2037 12.9223 18.2037C17.9632 18.2037 23.0778 18.2332 28.1098 18.2037L29.1044 18.2332C29.2667 18.2361 29.2815 18.2598 29.4349 18.2657L30.7069 18.3512C30.9371 18.3749 31.1231 18.3926 31.3356 18.4162C31.7281 18.4604 32.1531 18.5254 32.5279 18.611C34.9096 19.1451 36.279 19.8859 37.191 22.2057C37.9524 24.1388 38.0262 27.4029 38.0262 29.6282V40.3857C38.0262 40.6012 37.8314 40.7487 37.6042 40.7487H32.9322C32.401 40.7487 32.5102 40.2086 32.5102 39.6951V29.3301C32.5102 27.8456 32.5456 25.5377 31.61 24.2922C30.6863 23.0615 28.6528 22.8815 27.0857 22.8815H18.4974C18.0311 22.8815 18.0753 23.3242 18.0753 23.6046C18.0783 25.4344 18.1137 40.3621 18.0606 40.5244C18.0399 40.5864 17.972 40.6631 17.9248 40.6897C17.8687 40.7222 17.7772 40.7487 17.6828 40.7487L17.6858 40.7428Z" fill="#FCFCFC"/>
</svg>
