<svg width="168" height="295" viewBox="0 0 168 295" fill="none" xmlns="http://www.w3.org/2000/svg">
<path d="M17.0703 141.984C17.0703 111.526 22.0286 87.7969 31.9453 70.7969C41.862 53.6198 59.2161 45.0313 84.0078 45.0313C108.622 45.0313 125.888 53.6198 135.805 70.7969C145.721 87.7969 150.68 111.526 150.68 141.984C150.68 172.974 145.721 197.057 135.805 214.234C125.888 231.411 108.622 240 84.0078 240C59.2161 240 41.862 231.411 31.9453 214.234C22.0286 197.057 17.0703 172.974 17.0703 141.984ZM126.773 141.984C126.773 126.578 125.711 113.563 123.586 102.938C121.638 92.1354 117.477 83.4583 111.102 76.9063C104.904 70.3542 95.8724 67.0781 84.0078 67.0781C71.9661 67.0781 62.7578 70.3542 56.3828 76.9063C50.1849 83.4583 46.0234 92.1354 43.8984 102.938C41.9505 113.563 40.9766 126.578 40.9766 141.984C40.9766 157.922 41.9505 171.292 43.8984 182.094C46.0234 192.896 50.1849 201.573 56.3828 208.125C62.7578 214.677 71.9661 217.953 84.0078 217.953C95.8724 217.953 104.904 214.677 111.102 208.125C117.477 201.573 121.638 192.896 123.586 182.094C125.711 171.292 126.773 157.922 126.773 141.984Z" fill="#FCFCFC"/>
<path d="M64 184.655L103.85 105" stroke="white" stroke-width="20" stroke-linecap="round"/>
</svg>
